<svg width="40" height="40" viewBox="0 0 40 40" fill="none" xmlns="http://www.w3.org/2000/svg">
<rect width="40" height="40" fill="#E1F5FF"/>
<path d="M29.1461 16.1824C29.0069 16.2904 26.549 17.6754 26.549 20.7549C26.549 24.3168 29.6765 25.577 29.7702 25.6082C29.7558 25.685 29.2733 27.3339 28.1212 29.0141C27.0939 30.4926 26.021 31.9688 24.3888 31.9688C22.7567 31.9688 22.3366 31.0207 20.4524 31.0207C18.6162 31.0207 17.9634 32 16.4704 32C14.9775 32 13.9358 30.6319 12.738 28.9517C11.3507 26.9787 10.2298 23.9136 10.2298 21.0045C10.2298 16.3384 13.2637 13.8638 16.2496 13.8638C17.8362 13.8638 19.1587 14.9055 20.1548 14.9055C21.1029 14.9055 22.5814 13.8014 24.3864 13.8014C25.0705 13.8014 27.5283 13.8638 29.1461 16.1824ZM23.5295 11.826C24.276 10.9403 24.8041 9.71137 24.8041 8.48245C24.8041 8.31203 24.7897 8.13921 24.7585 8C23.5439 8.0456 22.099 8.80888 21.2277 9.81938C20.5436 10.5971 19.9052 11.826 19.9052 13.0717C19.9052 13.2589 19.9364 13.4461 19.9508 13.5062C20.0276 13.5206 20.1524 13.5374 20.2772 13.5374C21.3669 13.5374 22.7374 12.8077 23.5295 11.826Z" stroke="#0D57AA" stroke-width="1.6"/>
</svg>
