<svg width="192" height="204" viewBox="0 0 192 204" fill="none" xmlns="http://www.w3.org/2000/svg">
<rect x="76.2351" y="109.719" width="115.934" height="22.7568" rx="11.3784" transform="rotate(-30.5312 76.2351 109.719)" fill="#B3E5FF"/>
<rect width="115.934" height="22.7568" rx="11.3784" transform="matrix(-0.861353 -0.508008 -0.508008 0.861353 116.502 109.719)" fill="#B3E5FF"/>
<rect width="115.934" height="22.7568" rx="11.3784" transform="matrix(-4.37114e-08 -1 -1 4.37114e-08 109.156 197.251)" fill="#B3E5FF"/>
<path d="M27.435 60.5081C20.1239 56.1214 20.1239 45.5255 27.435 41.1388L90.189 3.48645C93.7657 1.34047 98.2339 1.34047 101.811 3.48646L164.565 41.1388C171.876 45.5255 171.876 56.1214 164.565 60.5081L101.811 98.1605C98.2339 100.306 93.7657 100.306 90.189 98.1605L27.435 60.5081Z" fill="#0D57AA"/>
<path d="M101.647 119.546C101.647 115.466 103.848 111.703 107.404 109.703L175.169 71.5851C182.697 67.3502 192 72.7908 192 81.4288V145.865C192 149.945 189.799 153.708 186.243 155.709L118.478 193.826C110.949 198.061 101.647 192.621 101.647 183.983V119.546Z" fill="#0477CC"/>
<path d="M0 76.8478C0 67.977 9.75755 62.5689 17.28 67.2704L85.0446 109.623C88.3468 111.687 90.3529 115.307 90.3529 119.201V183.983C90.3529 192.621 81.0504 198.061 73.5217 193.826L5.75704 155.709C2.20078 153.708 0 149.945 0 145.865V76.8478Z" fill="#009CF6"/>
</svg>
