<svg xmlns="http://www.w3.org/2000/svg" width="192" height="192"><svg width="192" height="192" viewBox="0 0 192 192" fill="none">
<rect width="192" height="192" rx="16" fill="#00274C"></rect>
<path d="M138.436 93.9008V93.8673C139.119 93.1519 139.831 92.5299 140.612 92.1082C145.27 90.323 153.533 100.294 171.428 94.0215C172.854 93.5202 174.114 91.8831 174.18 90.369C174.631 79.8818 171.384 78.741 169.078 73.7888C164.563 64.0742 158.029 58.0109 153.384 56.5106C142.921 52.8918 145.13 39.103 140.419 39.7549C137.82 40.112 135.546 44.6775 133.887 56.0838C127.975 59.2797 125.213 62.7679 122.937 67.0698C121.378 69.9708 117.574 72.9067 114.391 73.6879C96.3719 78.098 82.7226 90.6078 72.4681 109.395C69.3766 116.647 60.7013 140.024 69.2205 156.665C69.4996 157.215 69.2863 157.886 68.7382 158.165C68.577 158.251 68.4021 158.29 68.231 158.29C67.828 158.29 67.4398 158.068 67.2402 157.684C56.9775 137.632 69.8307 109.608 71.3496 106.436C74.9854 88.0143 93.982 79.6519 93.982 57.4552C93.982 34.8327 75.721 20 55.7064 20C35.6572 20 20.6117 34.1458 20.6117 34.1458C20.6117 34.1458 30.9464 36.1026 30.9464 50.511C30.9477 72.2889 16 76.3319 16 111.829C16 147.329 44.204 173.402 84.0434 173.402H143.474C143.474 165.904 140.193 163.852 131.322 163.69C142.2 146.937 140.936 134.431 131.624 124.792C127.605 122.146 109.698 111.8 92.9328 125.021C92.448 125.4 91.751 125.317 91.374 124.832C90.9934 124.348 91.0789 123.648 91.5613 123.268C110.326 108.478 130.888 121.599 133.475 123.361C154.773 124.607 168.103 102.978 173.119 113.051C173.61 114.035 175.055 113.894 175.337 112.832C181.337 90.1771 144.802 116.607 138.439 93.8994L138.436 93.9008ZM157.035 69.3812C158.866 69.3812 160.352 70.8716 160.352 72.7115C160.352 74.5501 158.866 76.043 157.035 76.043C155.201 76.043 153.714 74.5526 153.714 72.7115C153.714 70.8716 155.201 69.3812 157.035 69.3812Z" fill="#FFCB05"></path>
</svg><style>@media (prefers-color-scheme: light) { :root { filter: none; } }
@media (prefers-color-scheme: dark) { :root { filter: contrast(1) brightness(1); } }
</style></svg>