<svg width="20" height="25" viewBox="0 0 20 25" fill="none" xmlns="http://www.w3.org/2000/svg">
<path d="M1.97461 12.9704C1.97461 14.2873 2.89889 15.4346 4.20259 15.6264C5.08161 15.7556 5.97049 15.856 6.86761 15.926C7.25115 15.9564 7.60259 16.1573 7.81658 16.4782L9.9993 19.7523L12.182 16.4782C12.396 16.1573 12.7474 15.9564 13.131 15.9268C14.0281 15.856 14.917 15.7556 15.796 15.6264C17.0997 15.4346 18.024 14.2881 18.024 12.9696V8.01651C18.024 6.698 17.0997 5.55149 15.796 5.35972C13.8766 5.07801 11.9392 4.93689 9.9993 4.9375C8.03058 4.9375 6.09477 5.08153 4.20259 5.35972C2.89889 5.55149 1.97461 6.69882 1.97461 8.01651V12.9696V12.9704Z" stroke="#757575" stroke-width="1.23457" stroke-linecap="round" stroke-linejoin="round"/>
</svg>
