<svg width="20" height="20" viewBox="0 0 20 20" fill="none" xmlns="http://www.w3.org/2000/svg">
<path d="M13.75 5V5.625M13.75 8.125V8.75M13.75 11.25V11.875M13.75 14.375V15M6.25 10.625H10.625M6.25 12.5H8.75M2.8125 4.375C2.295 4.375 1.875 4.795 1.875 5.3125V7.83417C2.25562 8.05331 2.57177 8.3689 2.7916 8.74912C3.01143 9.12935 3.12717 9.5608 3.12717 10C3.12717 10.4392 3.01143 10.8706 2.7916 11.2509C2.57177 11.6311 2.25562 11.9467 1.875 12.1658V14.6875C1.875 15.205 2.295 15.625 2.8125 15.625H17.1875C17.705 15.625 18.125 15.205 18.125 14.6875V12.1658C17.7444 11.9467 17.4282 11.6311 17.2084 11.2509C16.9886 10.8706 16.8728 10.4392 16.8728 10C16.8728 9.5608 16.9886 9.12935 17.2084 8.74912C17.4282 8.3689 17.7444 8.05331 18.125 7.83417V5.3125C18.125 4.795 17.705 4.375 17.1875 4.375H2.8125Z" stroke="#757575" stroke-width="1.25" stroke-linecap="round" stroke-linejoin="round"/>
</svg>
