<svg width="20" height="20" viewBox="0 0 20 20" fill="none" xmlns="http://www.w3.org/2000/svg">
<path d="M13.1222 5C13.1222 5.8288 12.793 6.62366 12.2069 7.20971C11.6209 7.79576 10.826 8.125 9.99721 8.125C9.16841 8.125 8.37356 7.79576 7.7875 7.20971C7.20145 6.62366 6.87221 5.8288 6.87221 5C6.87221 4.1712 7.20145 3.37634 7.7875 2.79029C8.37356 2.20424 9.16841 1.875 9.99721 1.875C10.826 1.875 11.6209 2.20424 12.2069 2.79029C12.793 3.37634 13.1222 4.1712 13.1222 5ZM3.74805 16.765C3.77483 15.1253 4.445 13.5618 5.61403 12.4117C6.78306 11.2616 8.35729 10.6171 9.99721 10.6171C11.6371 10.6171 13.2114 11.2616 14.3804 12.4117C15.5494 13.5618 16.2196 15.1253 16.2464 16.765C14.2859 17.664 12.154 18.1279 9.99721 18.125C7.76721 18.125 5.65055 17.6383 3.74805 16.765Z" stroke="#757575" stroke-width="1.66667" stroke-linecap="round" stroke-linejoin="round"/>
</svg>
