<svg xmlns="http://www.w3.org/2000/svg" width="40" height="40" fill="none">
  <path stroke="#0D57AA" stroke-width="1.6" d="M29.1462 16.1824c-.1393.108-2.5971 1.493-2.5971 4.5725 0 3.5619 3.1275 4.8221 3.2211 4.8533-.0144.0768-.4968 1.7257-1.649 3.4059-1.0273 1.4785-2.1002 2.9547-3.7323 2.9547-1.6322 0-2.0522-.9481-3.9364-.9481-1.8362 0-2.4891.9793-3.982.9793-1.493 0-2.5347-1.3681-3.7324-3.0483-1.3873-1.973-2.5082-5.0381-2.5082-7.9472 0-4.6661 3.0339-7.1407 6.0198-7.1407 1.5865 0 2.9091 1.0417 3.9052 1.0417.948 0 2.4266-1.1041 4.2316-1.1041.684 0 3.1419.0624 4.7597 2.381Zm-5.6166-4.3564c.7465-.8857 1.2745-2.11463 1.2745-3.34355 0-.17042-.0144-.34324-.0456-.48245-1.2145.0456-2.6595.80888-3.5307 1.81938-.6841.77772-1.3226 2.00662-1.3226 3.25232 0 .1872.0312.3744.0456.4345.0768.0144.2017.0312.3265.0312 1.0897 0 2.4602-.7297 3.2523-1.7114Z"/>
</svg>