<svg width="40" height="40" viewBox="0 0 40 40" fill="none" xmlns="http://www.w3.org/2000/svg">
<path d="M20 14V20H24.5M29 20C29 21.1819 28.7672 22.3522 28.3149 23.4442C27.8626 24.5361 27.1997 25.5282 26.364 26.364C25.5282 27.1997 24.5361 27.8626 23.4442 28.3149C22.3522 28.7672 21.1819 29 20 29C18.8181 29 17.6478 28.7672 16.5558 28.3149C15.4639 27.8626 14.4718 27.1997 13.636 26.364C12.8003 25.5282 12.1374 24.5361 11.6851 23.4442C11.2328 22.3522 11 21.1819 11 20C11 17.6131 11.9482 15.3239 13.636 13.636C15.3239 11.9482 17.6131 11 20 11C22.3869 11 24.6761 11.9482 26.364 13.636C28.0518 15.3239 29 17.6131 29 20Z" stroke="#0D57AA" stroke-width="1.5" stroke-linecap="round" stroke-linejoin="round"/>
</svg>
