<svg width="40" height="40" viewBox="0 0 40 40" fill="none" xmlns="http://www.w3.org/2000/svg">
<path d="M26.7845 8.94082C26.8921 8.94082 26.9969 8.9746 27.0843 9.03739C30.2402 11.3059 32.15 14.9481 32.15 18.9094C32.15 25.6197 26.7103 31.0594 20 31.0594C13.2897 31.0594 7.85 25.6197 7.85 18.9094C7.85 14.9482 9.75981 11.306 12.9157 9.03744C13.003 8.97465 13.1079 8.94087 13.2155 8.94087L26.7845 8.94082ZM31.1227 18.9094C31.1227 18.0525 31.0252 17.212 30.8381 16.4007C30.8034 16.3904 30.7659 16.3794 30.7255 16.3678C30.4078 16.2768 30.0379 16.1852 29.6205 16.0994C26.7471 15.509 23.4908 15.509 20.1449 16.4931C16.6221 17.5292 13.1983 17.5292 10.1727 16.9075C9.77865 16.8265 9.42228 16.7402 9.10686 16.6528C8.95573 17.3857 8.87727 18.1409 8.87727 18.9094C8.87727 25.0523 13.8571 30.0321 20 30.0321C26.1429 30.0321 31.1227 25.0523 31.1227 18.9094ZM26.617 9.96809L13.383 9.96814C11.4546 11.3973 10.0518 13.3926 9.36081 15.6572C9.65861 15.7402 9.99933 15.8231 10.3795 15.9012C13.2529 16.4917 16.5092 16.4916 19.8551 15.5076C23.3779 14.4714 26.8017 14.4715 29.8273 15.0932C30.0674 15.1425 30.2936 15.1939 30.505 15.2462C29.7753 13.1514 28.4279 11.3102 26.617 9.96809ZM14.3955 20.364C14.3955 20.0006 14.7625 19.7521 15.0998 19.8871L17.2004 20.7273C17.8543 19.9197 18.9599 19.4867 20.3636 19.4867C21.6484 19.4867 22.9463 19.8188 23.9274 20.3588C24.8999 20.894 25.6045 21.6604 25.6045 22.5458C25.6045 23.4312 24.8999 24.1976 23.9274 24.7328C22.9463 25.2728 21.6484 25.6049 20.3636 25.6049C18.9599 25.6049 17.8543 25.1718 17.2004 24.3643L15.0998 25.2045C14.7625 25.3395 14.3955 25.091 14.3955 24.7276V20.364ZM17.8381 21.6098C17.7114 21.8335 17.439 21.9291 17.2003 21.8336L15.4227 21.1226V23.9689L17.2003 23.2579C17.439 23.1624 17.7114 23.2581 17.8381 23.4818C18.2165 24.1504 19.0585 24.5776 20.3636 24.5776C21.4268 24.5776 22.4946 24.3045 23.293 23.9031C23.6922 23.7023 24.0179 23.4725 24.2418 23.2344C24.4667 22.9951 24.5773 22.7603 24.5773 22.5458C24.5773 22.3313 24.4667 22.0965 24.2418 21.8572C24.0179 21.6191 23.6922 21.3893 23.293 21.1885C22.4946 20.787 21.4268 20.514 20.3636 20.514C19.0585 20.514 18.2165 20.9412 17.8381 21.6098Z" fill="#0D57AA" stroke="#0D57AA" stroke-width="0.3"/>
</svg>
