<svg width="41" height="40" viewBox="0 0 41 40" fill="none" xmlns="http://www.w3.org/2000/svg">
<g clip-path="url(#clip0_614_405)">
<path d="M20.6153 30.7992C23.0093 30.799 25.3354 30.0039 27.2285 28.5384C29.1216 27.073 30.4744 25.0204 31.0745 22.7028M20.6153 30.7992C18.2213 30.799 15.8952 30.0039 14.0021 28.5384C12.109 27.073 10.7562 25.0204 10.1561 22.7028M20.6153 30.7992C23.5973 30.7992 26.0153 25.9632 26.0153 19.9992C26.0153 14.0352 23.5973 9.19922 20.6153 9.19922M20.6153 30.7992C17.6333 30.7992 15.2153 25.9632 15.2153 19.9992C15.2153 14.0352 17.6333 9.19922 20.6153 9.19922M31.0745 22.7028C31.2965 21.8388 31.4153 20.9328 31.4153 19.9992C31.4183 18.1417 30.9399 16.3152 30.0269 14.6976M31.0745 22.7028C27.8743 24.4769 24.2743 25.405 20.6153 25.3992C16.8209 25.3992 13.2557 24.4212 10.1561 22.7028M10.1561 22.7028C9.92901 21.8196 9.8145 20.9112 9.81531 19.9992C9.81531 18.0732 10.3193 16.2636 11.2037 14.6976M20.6153 9.19922C22.5308 9.19842 24.412 9.70725 26.066 10.6735C27.7198 11.6397 29.0869 13.0286 30.0269 14.6976M20.6153 9.19922C18.6998 9.19842 16.8186 9.70725 15.1646 10.6735C13.5108 11.6397 12.1437 13.0286 11.2037 14.6976M30.0269 14.6976C27.4141 16.9607 24.0719 18.2042 20.6153 18.1992C17.0177 18.1992 13.7273 16.8792 11.2037 14.6976" stroke="#0D57AA" stroke-width="1.4" stroke-linecap="round" stroke-linejoin="round"/>
</g>
<defs>
<clipPath id="clip0_614_405">
<rect width="40" height="40" fill="white" transform="translate(0.615356)"/>
</clipPath>
</defs>
</svg>
