<svg width="40" height="40" viewBox="0 0 40 40" fill="none" xmlns="http://www.w3.org/2000/svg">
<path d="M14.72 21.829C14.48 21.859 14.24 21.891 14 21.925M14.72 21.829C18.2263 21.3891 21.7737 21.3891 25.28 21.829M14.72 21.829L14.34 26M25.28 21.829C25.52 21.859 25.76 21.891 26 21.925M25.28 21.829L25.66 26L25.889 28.523C25.9032 28.6787 25.8848 28.8356 25.8349 28.9837C25.7851 29.1319 25.7049 29.268 25.5995 29.3834C25.4942 29.4989 25.3659 29.5911 25.2229 29.6542C25.0799 29.7173 24.9253 29.7499 24.769 29.75H15.231C14.569 29.75 14.051 29.182 14.111 28.523L14.34 26M14.34 26H13.25C12.6533 26 12.081 25.7629 11.659 25.341C11.2371 24.919 11 24.3467 11 23.75V17.456C11 16.375 11.768 15.441 12.837 15.281C13.4729 15.1859 14.1107 15.1035 14.75 15.034M25.658 26H26.749C27.0446 26.0001 27.3372 25.942 27.6103 25.829C27.8834 25.716 28.1316 25.5503 28.3406 25.3413C28.5497 25.1324 28.7155 24.8843 28.8286 24.6113C28.9418 24.3382 29 24.0456 29 23.75V17.456C29 16.375 28.232 15.441 27.163 15.281C26.5271 15.1859 25.8893 15.1035 25.25 15.034M25.25 15.034C21.7603 14.6543 18.2397 14.6543 14.75 15.034M25.25 15.034V11.375C25.25 10.754 24.746 10.25 24.125 10.25H15.875C15.254 10.25 14.75 10.754 14.75 11.375V15.034M26 18.5H26.008V18.508H26V18.5ZM23 18.5H23.008V18.508H23V18.5Z" stroke="#0D57AA" stroke-width="1.5" stroke-linecap="round" stroke-linejoin="round"/>
</svg>
