<svg width="40" height="40" viewBox="0 0 40 40" fill="none" xmlns="http://www.w3.org/2000/svg">
<path d="M11.7505 26.5V25.426L13.1399 25.1873V15.3593H10.327L10.0798 17.0811H8.81829V14.0892H19.1322V17.0811H17.8877L17.632 15.3593H14.8191V25.1873L16.2085 25.426V26.5H11.7505ZM20.8387 26.5V25.426L22.2281 25.1873V15.4104L20.8387 15.1718V14.0892H22.2281H25.6973C26.794 14.0892 27.7487 14.3506 28.5613 14.8734C29.3796 15.3962 30.0161 16.1151 30.4707 17.03C30.9253 17.9449 31.1526 18.9905 31.1526 20.1668V20.431C31.1526 21.5789 30.9338 22.6131 30.4962 23.5337C30.0587 24.4486 29.4364 25.1731 28.6295 25.7073C27.8283 26.2358 26.8793 26.5 25.7825 26.5H20.8387ZM23.9073 25.1873H25.6973C26.4815 25.1873 27.1549 24.9742 27.7175 24.548C28.28 24.1162 28.7119 23.5422 29.0131 22.8262C29.32 22.1045 29.4734 21.3061 29.4734 20.431V20.1497C29.4734 19.2462 29.32 18.4392 29.0131 17.7289C28.7119 17.0129 28.28 16.4475 27.7175 16.0327C27.1549 15.6178 26.4815 15.4104 25.6973 15.4104H23.9073V25.1873Z" fill="#0D57AA"/>
</svg>
