<svg width="32" height="24" viewBox="0 0 32 24" fill="none" xmlns="http://www.w3.org/2000/svg">
<path d="M17.8599 21.0513L17.8597 21.0508L16.9325 19.1791C16.9324 19.1789 16.9323 19.1787 16.9322 19.1785C16.7347 18.7496 16.9147 18.2696 17.3139 18.0361C17.7278 17.8216 18.274 17.9712 18.5056 18.4003C18.5057 18.4006 18.5059 18.4008 18.506 18.4011L19.4327 20.272C19.4327 20.272 19.4328 20.2721 19.4328 20.2722C19.6476 20.7185 19.4676 21.1981 19.0339 21.4316C18.6036 21.6633 18.0749 21.4979 17.8599 21.0513ZM13.884 21.0512L13.8839 21.0514C13.6683 21.4993 13.1554 21.6811 12.7079 21.4656C12.26 21.25 12.0783 20.7373 12.2935 20.2899C12.2935 20.2898 12.2936 20.2897 12.2936 20.2896L13.2207 18.418C13.2207 18.4179 13.2208 18.4177 13.2209 18.4176C13.436 18.0044 13.9488 17.8218 14.3967 18.037C14.8099 18.2524 14.9924 18.7654 14.7767 19.2134L13.884 21.0512ZM16.9313 5.4305L16.9319 5.42932L17.8943 3.52192C17.8944 3.52184 17.8944 3.52177 17.8944 3.5217C18.1098 3.1079 18.6575 2.92627 19.0697 3.14061C19.4833 3.35569 19.6661 3.86897 19.4504 4.31716C19.4504 4.31722 19.4503 4.31729 19.4503 4.31735L18.5257 6.18396C18.5193 6.19201 18.5149 6.20025 18.5117 6.20716C18.5077 6.21599 18.5047 6.22512 18.5027 6.23118C18.5003 6.23825 18.499 6.24224 18.4975 6.24545C18.4971 6.24642 18.4967 6.24704 18.4965 6.24738L18.4921 6.25183L18.4886 6.25829C18.2563 6.68967 17.7262 6.85472 17.296 6.62307C16.8646 6.39078 16.6996 5.86071 16.9313 5.4305ZM12.2933 4.35188L12.2933 4.35187L12.2928 4.351C12.0778 3.93758 12.2263 3.42487 12.6573 3.19281C13.0876 2.96108 13.6163 3.12649 13.8313 3.57307L13.8313 3.57307L13.8318 3.57407L14.777 5.42951L14.777 5.42951L14.7776 5.43052C15.0093 5.86087 14.8439 6.38953 14.3973 6.60455L14.3973 6.60451L14.3953 6.60558C13.9649 6.83731 13.4363 6.6719 13.2212 6.22532L13.221 6.22482L12.2933 4.35188ZM19.581 15.1541L19.581 15.1541H19.5827H23.2936C24.8616 15.1541 26.1268 13.889 26.1268 12.321C26.1268 10.753 24.8616 9.48783 23.2936 9.48783H19.5827C19.5697 9.48783 19.5586 9.48947 19.5497 9.49126L19.5392 9.49359L19.5341 9.48854L19.5144 9.48786C19.0348 9.47132 18.6534 9.05727 18.67 8.57683C18.6865 8.09723 19.1006 7.7158 19.581 7.73236L19.581 7.73239H19.5827L23.2936 7.73239H23.5037L23.7127 7.73239C26.2397 7.83681 28.1962 10.0008 28.0923 12.529C27.9885 15.0564 25.8242 17.0135 23.2957 16.9096V16.9096H23.2936H19.5827L19.5477 16.9096H19.5136C19.0344 16.8926 18.6534 16.4787 18.67 15.9986C18.6865 15.519 19.1006 15.1375 19.581 15.1541ZM19.5827 11.4433C19.5828 11.4433 19.5828 11.4433 19.5828 11.4433C20.08 11.4434 20.46 11.8231 20.4605 12.3202C20.4434 12.8009 20.0625 13.1818 19.5818 13.1987L12.1443 13.2162C11.6983 13.1992 11.3172 12.8178 11.3007 12.3717C11.2842 11.8916 11.6652 11.4778 12.1444 11.4608L19.5827 11.4433ZM12.9862 16.0161C13.0027 16.4962 12.6218 16.9101 12.1426 16.9271L8.43382 16.9271C6.0618 16.8052 4.15784 14.9005 4.05395 12.5464C3.95009 10.0182 5.90669 7.85426 8.4337 7.74991L12.1601 7.73242C12.6061 7.7495 12.9871 8.1308 13.0037 8.57685C13.0202 9.05705 12.6392 9.47092 12.16 9.48785L8.43255 9.50535V9.55535L8.43232 9.50535L8.43242 9.50535C6.8645 9.50542 5.59939 10.7706 5.59939 12.3385C5.59939 13.9065 6.86457 15.1717 8.43255 15.1717L12.1425 15.1717C12.5885 15.1887 12.9696 15.57 12.9862 16.0161Z" fill="#212121" stroke="white" stroke-width="0.1"/>
</svg>
