<svg width="18" height="18" viewBox="0 0 18 18" fill="none" xmlns="http://www.w3.org/2000/svg" role="img" aria-labelledby="error_alert_icon">
    <title id="error_alert_icon">Error Alert Icon</title>
    <path d="M9 6.74951V9.56201M15.75 8.99951C15.75 9.88594 15.5754 10.7637 15.2363 11.5826C14.897 12.4016 14.3998 13.1457 13.773 13.7725C13.1462 14.3993 12.4021 14.8965 11.5831 15.2358C10.7642 15.5749 9.88643 15.7495 9 15.7495C8.11357 15.7495 7.23583 15.5749 6.41688 15.2358C5.59794 14.8965 4.85382 14.3993 4.22703 13.7725C3.60024 13.1457 3.10304 12.4016 2.76381 11.5826C2.4246 10.7637 2.25 9.88594 2.25 8.99951C2.25 7.20931 2.96117 5.49241 4.22703 4.22654C5.4929 2.96068 7.20979 2.24951 9 2.24951C10.7902 2.24951 12.5071 2.96068 13.773 4.22654C15.0389 5.49241 15.75 7.20931 15.75 8.99951ZM9 11.812H9.006V11.818H9V11.812Z" stroke="#A30011" stroke-width="1.125" stroke-linecap="round" stroke-linejoin="round"/>
</svg>
