<svg width="40" height="40" viewBox="0 0 40 40" fill="none" xmlns="http://www.w3.org/2000/svg">
<circle cx="20" cy="20" r="20" fill="white"/>
<path d="M12.3077 17.6922C12.3077 16.9851 12.447 16.2849 12.7176 15.6316C12.9882 14.9783 13.3848 14.3847 13.8848 13.8847C14.3848 13.3847 14.9784 12.9881 15.6317 12.7175C16.285 12.4469 16.9852 12.3076 17.6923 12.3076C18.3994 12.3076 19.0996 12.4469 19.7529 12.7175C20.4062 12.9881 20.9998 13.3847 21.4998 13.8847C21.9998 14.3847 22.3964 14.9783 22.667 15.6316C22.9376 16.2849 23.0769 16.9851 23.0769 17.6922C23.0769 19.1203 22.5096 20.4899 21.4998 21.4997C20.49 22.5095 19.1204 23.0768 17.6923 23.0768C16.2642 23.0768 14.8946 22.5095 13.8848 21.4997C12.875 20.4899 12.3077 19.1203 12.3077 17.6922Z" fill="#0488E1"/>
<path fill-rule="evenodd" clip-rule="evenodd" d="M20 0C8.95385 0 0 8.95385 0 20C0 31.0462 8.95385 40 20 40C31.0462 40 40 31.0462 40 20C40 8.95385 31.0462 0 20 0ZM17.6923 9.23077C16.3663 9.23103 15.059 9.54291 13.8757 10.1413C12.6924 10.7396 11.6663 11.6077 10.8801 12.6754C10.094 13.7432 9.56973 14.9808 9.34973 16.2884C9.12972 17.596 9.2201 18.937 9.61357 20.2032C10.007 21.4695 10.6926 22.6255 11.6149 23.5781C12.5373 24.5307 13.6706 25.2533 14.9235 25.6874C16.1763 26.1216 17.5137 26.2552 18.8277 26.0775C20.1417 25.8999 21.3956 25.4159 22.4882 24.6646L26.6051 28.7795C26.746 28.9306 26.9158 29.0519 27.1045 29.136C27.2933 29.22 27.497 29.2653 27.7035 29.2689C27.9101 29.2726 28.1153 29.2346 28.3069 29.1572C28.4984 29.0798 28.6725 28.9646 28.8185 28.8185C28.9646 28.6725 29.0798 28.4984 29.1572 28.3069C29.2346 28.1153 29.2726 27.9101 29.2689 27.7035C29.2653 27.497 29.22 27.2933 29.136 27.1045C29.0519 26.9158 28.9306 26.746 28.7795 26.6051L24.6646 22.4882C25.5387 21.2177 26.0489 19.7325 26.1402 18.1931C26.2314 16.6537 25.9003 15.1186 25.1825 13.7537C24.4647 12.3888 23.3875 11.2461 22.0674 10.4489C20.7473 9.65179 19.2344 9.23056 17.6923 9.23077Z" fill="#0488E1"/>
</svg>
