<svg width="96" height="32" viewBox="0 0 96 32" fill="none" xmlns="http://www.w3.org/2000/svg">
    <rect x="4" y="5" width="24" height="14" fill="#B3E5FF"/>
    <rect x="2" y="22" width="28" height="5" fill="#B3E5FF"/>
    <path d="M3.92695 27.5531H27.9539C29.6783 27.5531 31.0809 26.1503 31.0809 24.4261C31.0809 22.702 29.6783 21.2992 27.9539 21.2992H3.92695C2.2026 21.2992 0.8 22.702 0.8 24.4261C0.8 26.1503 2.2026 27.5531 3.92695 27.5531ZM2.39798 24.4261C2.39798 23.5834 3.08397 22.8976 3.92695 22.8976H27.9539C28.7969 22.8976 29.4829 23.5834 29.4829 24.4261C29.4829 25.2688 28.7969 25.9547 27.9539 25.9547H3.92695C3.08397 25.9547 2.39798 25.2688 2.39798 24.4261ZM6.9769 20.7034H24.9038C27.2017 20.7034 29.0708 18.8341 29.0708 16.5364V7.96701C29.0708 5.66926 27.2017 3.8 24.9038 3.8H6.9769C4.67914 3.8 2.8101 5.66927 2.8101 7.96701V16.5364C2.8101 18.8341 4.67914 20.7034 6.9769 20.7034ZM4.40807 7.96701C4.40807 6.55068 5.56054 5.39838 6.9769 5.39838H24.9038C26.3201 5.39838 27.4728 6.5507 27.4728 7.96701V16.5364C27.4728 17.9527 26.3201 19.105 24.9038 19.105H6.9769C5.56054 19.105 4.40807 17.9527 4.40807 16.5364V7.96701Z" fill="#0477CC" stroke="#0477CC" stroke-width="0.4"/>
    <path d="M39 6L49 16L39 26M47 6L57 16L47 26" stroke="#0D57AA" stroke-width="2" stroke-linecap="round" stroke-linejoin="round"/>
    <rect x="77" y="10" width="6" height="6" fill="#B3E5FF"/>
    <path d="M87.976 24.9663C87.0443 23.7328 85.839 22.7324 84.4549 22.0441C83.0708 21.3558 81.5458 20.9982 80 20.9996C78.4542 20.9982 76.9292 21.3558 75.5451 22.0441C74.161 22.7324 72.9557 23.7328 72.024 24.9663M87.976 24.9663C89.794 23.3492 91.0762 21.2177 91.6549 18.8544C92.2337 16.4911 92.0803 14.0077 91.2153 11.7336C90.3502 9.45943 88.8143 7.50198 86.8112 6.1208C84.8081 4.73963 82.4325 4 79.9993 4C77.5662 4 75.1906 4.73963 73.1875 6.1208C71.1844 7.50198 69.6484 9.45943 68.7834 11.7336C67.9183 14.0077 67.765 16.4911 68.3438 18.8544C68.9225 21.2177 70.206 23.3492 72.024 24.9663M87.976 24.9663C85.7814 26.9238 82.9408 28.0038 80 27.9996C77.0587 28.0041 74.219 26.9242 72.024 24.9663M84 12.9996C84 14.0605 83.5786 15.0779 82.8284 15.828C82.0783 16.5782 81.0609 16.9996 80 16.9996C78.9391 16.9996 77.9217 16.5782 77.1716 15.828C76.4214 15.0779 76 14.0605 76 12.9996C76 11.9387 76.4214 10.9213 77.1716 10.1712C77.9217 9.42103 78.9391 8.99961 80 8.99961C81.0609 8.99961 82.0783 9.42103 82.8284 10.1712C83.5786 10.9213 84 11.9387 84 12.9996Z" fill="#B3E5FF"/>
    <path d="M87.976 24.9663C87.0443 23.7328 85.839 22.7324 84.4549 22.0441C83.0708 21.3558 81.5458 20.9982 80 20.9996C78.4542 20.9982 76.9292 21.3558 75.5451 22.0441C74.161 22.7324 72.9557 23.7328 72.024 24.9663M87.976 24.9663C89.794 23.3492 91.0762 21.2177 91.6549 18.8544C92.2337 16.4911 92.0803 14.0077 91.2153 11.7336C90.3502 9.45943 88.8143 7.50198 86.8112 6.1208C84.8081 4.73963 82.4325 4 79.9993 4C77.5662 4 75.1906 4.73963 73.1875 6.1208C71.1844 7.50198 69.6484 9.45943 68.7834 11.7336C67.9183 14.0077 67.765 16.4911 68.3438 18.8544C68.9225 21.2177 70.206 23.3492 72.024 24.9663M87.976 24.9663C85.7814 26.9238 82.9408 28.0038 80 27.9996C77.0587 28.0041 74.219 26.9242 72.024 24.9663M84 12.9996C84 14.0605 83.5786 15.0779 82.8284 15.828C82.0783 16.5782 81.0609 16.9996 80 16.9996C78.9391 16.9996 77.9217 16.5782 77.1716 15.828C76.4214 15.0779 76 14.0605 76 12.9996C76 11.9387 76.4214 10.9213 77.1716 10.1712C77.9217 9.42103 78.9391 8.99961 80 8.99961C81.0609 8.99961 82.0783 9.42103 82.8284 10.1712C83.5786 10.9213 84 11.9387 84 12.9996Z" stroke="#0D57AA" stroke-width="2" stroke-linecap="round" stroke-linejoin="round"/>
</svg>
