<svg width="35" height="34" viewBox="0 0 35 34" fill="none" xmlns="http://www.w3.org/2000/svg">
<g clip-path="url(#clip0_476_283)">
<path d="M20.6539 15.4698C20.894 16.1487 20.9677 16.8753 20.8687 17.5885C20.7698 18.3018 20.5011 18.9809 20.0853 19.5688C19.6695 20.1567 19.1187 20.6362 18.4791 20.9671C17.8395 21.298 17.1299 21.4705 16.4098 21.4703L10.0458 21.4703C8.85236 21.4703 7.70776 20.9962 6.86384 20.1523C6.01992 19.3083 5.54581 18.1637 5.54581 16.9703C5.54581 15.7768 6.01992 14.6322 6.86384 13.7883C7.70776 12.9443 8.85236 12.4702 10.0458 12.4702L12.5306 12.4702M22.4103 21.4703H24.8951C26.0886 21.4703 27.2332 20.9962 28.0771 20.1523C28.921 19.3083 29.3951 18.1637 29.3951 16.9703C29.3951 15.7768 28.921 14.6322 28.0771 13.7883C27.2332 12.9443 26.0886 12.4702 24.8951 12.4702L18.5311 12.4702C17.811 12.47 17.1014 12.6425 16.4618 12.9734C15.8222 13.3043 15.2714 13.7838 14.8556 14.3717C14.4398 14.9596 14.1711 15.6387 14.0722 16.352C13.9733 17.0653 14.047 17.7919 14.2871 18.4707" stroke="#212121" stroke-width="1.5" stroke-linecap="round" stroke-linejoin="round"/>
</g>
<defs>
<clipPath id="clip0_476_283">
<rect width="24" height="24" fill="white" transform="translate(17.4705) rotate(45)"/>
</clipPath>
</defs>
</svg>
