<svg xmlns="http://www.w3.org/2000/svg" width="14" height="14" fill="none" viewBox="0 0 14 14">
  <path stroke="#212121" stroke-linecap="round" stroke-linejoin="round" stroke-width=".875" d="M9.18765 3.5c0 .58016-.23047 1.13656-.64071 1.5468-.41023.41023-.96663.6407-1.54679.6407-.58016 0-1.13656-.23047-1.5468-.6407-.41023-.41024-.6407-.96664-.6407-1.5468 0-.58016.23047-1.13656.6407-1.5468.41024-.41023.96664-.6407 1.5468-.6407.58016 0 1.13656.23047 1.54679.6407.41024.41024.64071.96664.64071 1.5468Zm-6.56192 8.2355c.01875-1.1478.48787-2.24224 1.30619-3.04731.81832-.80506 1.92028-1.25625 3.06823-1.25625 1.14795 0 2.24991.45119 3.06825 1.25625.8183.80507 1.2874 1.89951 1.3062 3.04731-1.3724.6293-2.8647.954-4.37445.952-1.561 0-3.04267-.3407-4.37442-.952Z"/>
</svg>