<svg width="300" height="61" viewBox="0 0 300 61" fill="none" xmlns="http://www.w3.org/2000/svg">
<g opacity="0.8">
<path d="M40.1939 48.6959L23.7445 26.1528V42.5542H30.2559V58.7542H0V42.5542H6.1396V17.3833H0V1.16309H23.7948L40.1939 23.8572L56.5829 1.16309H80.3878V17.3531H74.218V42.524H80.3878V58.724H50.1217V42.5542H56.6432V26.1528L40.1939 48.6959Z" fill="#FFCB05"/>
<line x1="97.9707" y1="0.0185547" x2="97.9707" y2="58.4147" stroke="#FFCB05" strokeWidth="1.00584"/>
<path d="M117.07 9.44867V26.1895H115.423V9.44867H111.056V7.87803H121.437V9.44867H117.07ZM124.319 26.1895V7.87803H134.624V9.44867H125.967V16.2548H132.977V17.8254H125.967V24.6188H134.624V26.1895H124.319ZM148.067 21.95C148.067 22.5714 147.947 23.1546 147.709 23.6994C147.479 24.2442 147.16 24.721 146.751 25.1296C146.343 25.5382 145.866 25.8617 145.321 26.1001C144.776 26.3299 144.193 26.4448 143.572 26.4448H142.269C141.648 26.4448 141.06 26.3299 140.507 26.1001C139.962 25.8617 139.486 25.5382 139.077 25.1296C138.668 24.721 138.345 24.2442 138.106 23.6994C137.877 23.1546 137.762 22.5714 137.762 21.95V12.1175C137.762 11.496 137.877 10.9129 138.106 10.3681C138.345 9.82324 138.668 9.34652 139.077 8.93789C139.486 8.52927 139.962 8.21003 140.507 7.98018C141.06 7.74182 141.648 7.62264 142.269 7.62264H143.572C144.193 7.62264 144.776 7.74182 145.321 7.98018C145.866 8.21003 146.343 8.52927 146.751 8.93789C147.16 9.34652 147.479 9.82324 147.709 10.3681C147.947 10.9129 148.067 11.496 148.067 12.1175V12.8581L146.419 13.1135V12.1175C146.419 11.7089 146.343 11.33 146.19 10.981C146.036 10.6235 145.828 10.3127 145.564 10.0488C145.3 9.78493 144.989 9.57637 144.632 9.42313C144.283 9.2699 143.904 9.19328 143.495 9.19328H142.346C141.937 9.19328 141.554 9.2699 141.197 9.42313C140.848 9.57637 140.537 9.78493 140.264 10.0488C140.001 10.3127 139.792 10.6235 139.639 10.981C139.486 11.33 139.409 11.7089 139.409 12.1175V21.95C139.409 22.3586 139.486 22.7417 139.639 23.0992C139.792 23.4483 140.001 23.759 140.264 24.0314C140.537 24.2953 140.848 24.5039 141.197 24.6571C141.554 24.8103 141.937 24.887 142.346 24.887H143.495C143.904 24.887 144.283 24.8103 144.632 24.6571C144.989 24.5039 145.3 24.2953 145.564 24.0314C145.828 23.759 146.036 23.4483 146.19 23.0992C146.343 22.7417 146.419 22.3586 146.419 21.95V20.954L148.067 21.2221V21.95ZM160.653 26.1895V17.8254H153.643V26.1895H151.996V7.87803H153.643V16.2548H160.653V7.87803H162.301V26.1895H160.653ZM183.069 21.95C183.069 22.5714 182.95 23.1546 182.711 23.6994C182.481 24.2442 182.162 24.721 181.753 25.1296C181.345 25.5382 180.868 25.8617 180.323 26.1001C179.778 26.3299 179.195 26.4448 178.574 26.4448H177.271C176.65 26.4448 176.063 26.3299 175.509 26.1001C174.964 25.8617 174.488 25.5382 174.079 25.1296C173.67 24.721 173.347 24.2442 173.109 23.6994C172.879 23.1546 172.764 22.5714 172.764 21.95V12.1175C172.764 11.496 172.879 10.9129 173.109 10.3681C173.347 9.82324 173.67 9.34652 174.079 8.93789C174.488 8.52927 174.964 8.21003 175.509 7.98018C176.063 7.74182 176.65 7.62264 177.271 7.62264H178.574C179.195 7.62264 179.778 7.74182 180.323 7.98018C180.868 8.21003 181.345 8.52927 181.753 8.93789C182.162 9.34652 182.481 9.82324 182.711 10.3681C182.95 10.9129 183.069 11.496 183.069 12.1175V12.8581L181.421 13.1135V12.1175C181.421 11.7089 181.345 11.33 181.192 10.981C181.038 10.6235 180.83 10.3127 180.566 10.0488C180.302 9.78493 179.991 9.57637 179.634 9.42313C179.285 9.2699 178.906 9.19328 178.497 9.19328H177.348C176.939 9.19328 176.556 9.2699 176.199 9.42313C175.85 9.57637 175.539 9.78493 175.267 10.0488C175.003 10.3127 174.794 10.6235 174.641 10.981C174.488 11.33 174.411 11.7089 174.411 12.1175V21.95C174.411 22.3586 174.488 22.7417 174.641 23.0992C174.794 23.4483 175.003 23.759 175.267 24.0314C175.539 24.2953 175.85 24.5039 176.199 24.6571C176.556 24.8103 176.939 24.887 177.348 24.887H178.497C178.906 24.887 179.285 24.8103 179.634 24.6571C179.991 24.5039 180.302 24.2953 180.566 24.0314C180.83 23.759 181.038 23.4483 181.192 23.0992C181.345 22.7417 181.421 22.3586 181.421 21.95V20.954L183.069 21.2221V21.95ZM197.035 21.95C197.035 22.5714 196.915 23.1546 196.677 23.6994C196.447 24.2442 196.128 24.721 195.719 25.1296C195.311 25.5382 194.834 25.8617 194.289 26.1001C193.744 26.3299 193.161 26.4448 192.54 26.4448H191.237C190.616 26.4448 190.028 26.3299 189.475 26.1001C188.93 25.8617 188.454 25.5382 188.045 25.1296C187.636 24.721 187.313 24.2442 187.074 23.6994C186.845 23.1546 186.73 22.5714 186.73 21.95V12.1175C186.73 11.496 186.845 10.9129 187.074 10.3681C187.313 9.82324 187.636 9.34652 188.045 8.93789C188.454 8.52927 188.93 8.21003 189.475 7.98018C190.028 7.74182 190.616 7.62264 191.237 7.62264H192.54C193.161 7.62264 193.744 7.74182 194.289 7.98018C194.834 8.21003 195.311 8.52927 195.719 8.93789C196.128 9.34652 196.447 9.82324 196.677 10.3681C196.915 10.9129 197.035 11.496 197.035 12.1175V21.95ZM195.387 12.1175C195.387 11.7089 195.311 11.33 195.157 10.981C195.004 10.6235 194.796 10.3127 194.532 10.0488C194.268 9.78493 193.957 9.57637 193.6 9.42313C193.251 9.2699 192.872 9.19328 192.463 9.19328H191.314C190.905 9.19328 190.522 9.2699 190.165 9.42313C189.816 9.57637 189.505 9.78493 189.232 10.0488C188.969 10.3127 188.76 10.6235 188.607 10.981C188.454 11.33 188.377 11.7089 188.377 12.1175V21.95C188.377 22.3586 188.454 22.7417 188.607 23.0992C188.76 23.4483 188.969 23.759 189.232 24.0314C189.505 24.2953 189.816 24.5039 190.165 24.6571C190.522 24.8103 190.905 24.887 191.314 24.887H192.463C192.872 24.887 193.251 24.8103 193.6 24.6571C193.957 24.5039 194.268 24.2953 194.532 24.0314C194.796 23.759 195.004 23.4483 195.157 23.0992C195.311 22.7417 195.387 22.3586 195.387 21.95V12.1175ZM210.656 26.1895L203.02 12.8581L202.866 12.0664V26.1895H201.219V7.87803H202.075L209.711 21.2221L209.877 22.0011V7.87803H211.524V26.1895H210.656ZM226.013 21.95C226.013 22.5714 225.886 23.1546 225.63 23.6994C225.384 24.2442 225.047 24.721 224.622 25.1296C224.204 25.5382 223.715 25.8617 223.153 26.1001C222.6 26.3299 222.012 26.4448 221.391 26.4448H220.076C219.454 26.4448 218.863 26.3299 218.301 26.1001C217.747 25.8617 217.258 25.5382 216.832 25.1296C216.415 24.721 216.079 24.2442 215.823 23.6994C215.577 23.1546 215.453 22.5714 215.453 21.95V21.2221L217.1 20.954V21.95C217.1 22.3586 217.181 22.7417 217.343 23.0992C217.513 23.4483 217.739 23.759 218.02 24.0314C218.301 24.2953 218.624 24.5039 218.99 24.6571C219.365 24.8103 219.756 24.887 220.165 24.887H221.314C221.723 24.887 222.11 24.8103 222.476 24.6571C222.842 24.5039 223.166 24.2953 223.447 24.0314C223.728 23.759 223.949 23.4483 224.111 23.0992C224.281 22.7417 224.366 22.3586 224.366 21.95V21.4009C224.366 20.7709 224.243 20.2474 223.996 19.8303C223.749 19.4131 223.421 19.0598 223.013 18.7704C222.604 18.4724 222.14 18.2213 221.621 18.017C221.11 17.8127 220.582 17.6084 220.037 17.4041C219.493 17.1997 218.96 16.9741 218.441 16.7273C217.93 16.4804 217.471 16.1739 217.062 15.8079C216.653 15.4333 216.326 14.9779 216.079 14.4415C215.832 13.9052 215.708 13.2455 215.708 12.4623V12.1175C215.708 11.496 215.823 10.9129 216.053 10.3681C216.292 9.82324 216.615 9.34652 217.024 8.93789C217.432 8.52927 217.909 8.21003 218.454 7.98018C219.007 7.74182 219.595 7.62264 220.216 7.62264H221.391C222.012 7.62264 222.595 7.74182 223.14 7.98018C223.685 8.21003 224.162 8.52927 224.571 8.93789C224.979 9.34652 225.298 9.82324 225.528 10.3681C225.767 10.9129 225.886 11.496 225.886 12.1175V12.59L224.239 12.8581V12.1175C224.239 11.7089 224.162 11.33 224.009 10.981C223.855 10.6235 223.647 10.3127 223.383 10.0488C223.119 9.78493 222.808 9.57637 222.451 9.42313C222.102 9.2699 221.723 9.19328 221.314 9.19328H220.293C219.884 9.19328 219.501 9.2699 219.143 9.42313C218.794 9.57637 218.484 9.78493 218.211 10.0488C217.947 10.3127 217.739 10.6235 217.586 10.981C217.432 11.33 217.356 11.7089 217.356 12.1175V12.4623C217.356 13.0497 217.479 13.5434 217.726 13.9435C217.973 14.3436 218.301 14.6884 218.709 14.9779C219.118 15.2588 219.578 15.5057 220.088 15.7185C220.608 15.9228 221.14 16.1356 221.685 16.357C222.229 16.5698 222.757 16.8081 223.268 17.072C223.787 17.3274 224.251 17.6467 224.66 18.0298C225.069 18.4043 225.396 18.864 225.643 19.4089C225.89 19.9537 226.013 20.6177 226.013 21.4009V21.95ZM239.852 21.95C239.852 22.5714 239.732 23.1546 239.494 23.6994C239.264 24.2442 238.945 24.721 238.536 25.1296C238.128 25.5382 237.651 25.8617 237.106 26.1001C236.561 26.3299 235.978 26.4448 235.357 26.4448H234.054C233.433 26.4448 232.845 26.3299 232.292 26.1001C231.747 25.8617 231.271 25.5382 230.862 25.1296C230.453 24.721 230.13 24.2442 229.891 23.6994C229.662 23.1546 229.547 22.5714 229.547 21.95V7.87803H231.194V21.95C231.194 22.3586 231.271 22.7417 231.424 23.0992C231.577 23.4483 231.786 23.759 232.049 24.0314C232.322 24.2953 232.633 24.5039 232.982 24.6571C233.339 24.8103 233.722 24.887 234.131 24.887H235.28C235.689 24.887 236.068 24.8103 236.417 24.6571C236.774 24.5039 237.085 24.2953 237.349 24.0314C237.613 23.759 237.821 23.4483 237.975 23.0992C238.128 22.7417 238.204 22.3586 238.204 21.95V7.87803H239.852V21.95ZM243.768 26.1895V7.87803H245.415V24.6188H252.426V26.1895H243.768ZM259.049 9.44867V26.1895H257.402V9.44867H253.035V7.87803H263.416V9.44867H259.049ZM266.298 26.1895V7.87803H267.945V26.1895H266.298ZM281.835 26.1895L274.199 12.8581L274.045 12.0664V26.1895H272.398V7.87803H273.254L280.89 21.2221L281.056 22.0011V7.87803H282.703V26.1895H281.835ZM297.192 26.1895H296.669L295.711 24.721C295.311 25.2488 294.826 25.6702 294.255 25.9851C293.685 26.2916 293.051 26.4448 292.353 26.4448H291.395C290.774 26.4448 290.186 26.3299 289.633 26.1001C289.088 25.8617 288.611 25.5382 288.203 25.1296C287.794 24.721 287.471 24.2442 287.232 23.6994C287.002 23.1546 286.888 22.5714 286.888 21.95V12.1175C286.888 11.496 287.002 10.9129 287.232 10.3681C287.471 9.82324 287.794 9.34652 288.203 8.93789C288.611 8.52927 289.088 8.21003 289.633 7.98018C290.186 7.74182 290.774 7.62264 291.395 7.62264H292.698C293.319 7.62264 293.902 7.74182 294.447 7.98018C294.992 8.21003 295.469 8.52927 295.877 8.93789C296.286 9.34652 296.605 9.82324 296.835 10.3681C297.073 10.9129 297.192 11.496 297.192 12.1175V12.8581L295.545 13.1135V12.1175C295.545 11.7089 295.469 11.33 295.315 10.981C295.162 10.6235 294.954 10.3127 294.69 10.0488C294.426 9.78493 294.115 9.57637 293.757 9.42313C293.408 9.2699 293.03 9.19328 292.621 9.19328H291.472C291.063 9.19328 290.68 9.2699 290.323 9.42313C289.973 9.57637 289.663 9.78493 289.39 10.0488C289.126 10.3127 288.918 10.6235 288.765 10.981C288.611 11.33 288.535 11.7089 288.535 12.1175V21.95C288.535 22.3586 288.611 22.7417 288.765 23.0992C288.918 23.4483 289.126 23.759 289.39 24.0314C289.663 24.2953 289.973 24.5039 290.323 24.6571C290.68 24.8103 291.063 24.887 291.472 24.887H292.621C293.03 24.887 293.408 24.8103 293.757 24.6571C294.115 24.5039 294.426 24.2953 294.69 24.0314C294.954 23.759 295.162 23.4483 295.315 23.0992C295.469 22.7417 295.545 22.3586 295.545 21.95V18.1319H292.621V16.5613H297.192V26.1895Z" fill="#FFCB05"/>
<path d="M122.931 44.8523C122.931 45.4738 122.812 46.0569 122.574 46.6017C122.344 47.1466 122.025 47.6233 121.616 48.0319C121.208 48.4405 120.727 48.764 120.173 49.0024C119.628 49.2322 119.045 49.3472 118.424 49.3472H112.626V31.0357H118.424C119.045 31.0357 119.628 31.1549 120.173 31.3933C120.727 31.6231 121.208 31.9424 121.616 32.351C122.025 32.7596 122.344 33.2406 122.574 33.7939C122.812 34.3388 122.931 34.9219 122.931 35.5434V44.8523ZM121.284 35.5434C121.284 35.1347 121.208 34.7559 121.054 34.4069C120.901 34.0493 120.688 33.7386 120.416 33.4747C120.152 33.2023 119.841 32.9895 119.484 32.8362C119.135 32.683 118.756 32.6064 118.347 32.6064H114.274V47.7765H118.347C118.756 47.7765 119.135 47.6999 119.484 47.5467C119.841 47.3934 120.152 47.1849 120.416 46.921C120.688 46.6571 120.901 46.3506 121.054 46.0016C121.208 45.644 121.284 45.2609 121.284 44.8523V35.5434ZM133.973 45.0822H128.176L126.975 49.3472H125.264L130.627 31.0357H131.496L136.884 49.3472H135.186L133.973 45.0822ZM128.623 43.5115H133.539L131.125 35.0709L131.074 34.3941L131.023 35.0709L128.623 43.5115ZM149.522 45.1077C149.522 45.7292 149.395 46.3123 149.139 46.8571C148.892 47.402 148.556 47.8787 148.13 48.2873C147.713 48.6959 147.224 49.0194 146.662 49.2578C146.109 49.4876 145.521 49.6026 144.9 49.6026H143.585C142.963 49.6026 142.371 49.4876 141.81 49.2578C141.256 49.0194 140.767 48.6959 140.341 48.2873C139.924 47.8787 139.588 47.402 139.332 46.8571C139.085 46.3123 138.962 45.7292 138.962 45.1077V44.3798L140.609 44.1117V45.1077C140.609 45.5163 140.69 45.8994 140.852 46.257C141.022 46.606 141.248 46.9167 141.529 47.1891C141.81 47.453 142.133 47.6616 142.499 47.8148C142.874 47.9681 143.265 48.0447 143.674 48.0447H144.823C145.232 48.0447 145.619 47.9681 145.985 47.8148C146.351 47.6616 146.675 47.453 146.956 47.1891C147.237 46.9167 147.458 46.606 147.62 46.257C147.79 45.8994 147.875 45.5163 147.875 45.1077V44.5586C147.875 43.9287 147.752 43.4051 147.505 42.988C147.258 42.5708 146.93 42.2175 146.522 41.9281C146.113 41.6301 145.649 41.379 145.13 41.1747C144.619 40.9704 144.091 40.7661 143.546 40.5618C143.001 40.3575 142.469 40.1319 141.95 39.885C141.439 39.6381 140.98 39.3316 140.571 38.9656C140.162 38.591 139.835 38.1356 139.588 37.5993C139.341 37.0629 139.217 36.4032 139.217 35.62V35.2752C139.217 34.6538 139.332 34.0706 139.562 33.5258C139.801 32.981 140.124 32.5042 140.533 32.0956C140.941 31.687 141.418 31.3677 141.963 31.1379C142.516 30.8995 143.104 30.7804 143.725 30.7804H144.9C145.521 30.7804 146.104 30.8995 146.649 31.1379C147.194 31.3677 147.671 31.687 148.079 32.0956C148.488 32.5042 148.807 32.981 149.037 33.5258C149.275 34.0706 149.395 34.6538 149.395 35.2752V35.7477L147.747 36.0158V35.2752C147.747 34.8666 147.671 34.4878 147.518 34.1387C147.364 33.7812 147.156 33.4705 146.892 33.2066C146.628 32.9426 146.317 32.7341 145.96 32.5808C145.611 32.4276 145.232 32.351 144.823 32.351H143.802C143.393 32.351 143.01 32.4276 142.652 32.5808C142.303 32.7341 141.993 32.9426 141.72 33.2066C141.456 33.4705 141.248 33.7812 141.094 34.1387C140.941 34.4878 140.865 34.8666 140.865 35.2752V35.62C140.865 36.2074 140.988 36.7011 141.235 37.1012C141.482 37.5014 141.81 37.8461 142.218 38.1356C142.627 38.4165 143.087 38.6634 143.597 38.8762C144.117 39.0805 144.649 39.2933 145.193 39.5147C145.738 39.7275 146.266 39.9659 146.777 40.2298C147.296 40.4852 147.76 40.8044 148.169 41.1875C148.577 41.562 148.905 42.0217 149.152 42.5666C149.399 43.1114 149.522 43.7754 149.522 44.5586V45.1077ZM161.981 49.3472V40.9832H154.971V49.3472H153.324V31.0357H154.971V39.4125H161.981V31.0357H163.629V49.3472H161.981ZM178.386 44.8523C178.386 45.4738 178.267 46.0569 178.029 46.6017C177.799 47.1466 177.48 47.6233 177.071 48.0319C176.662 48.4405 176.181 48.764 175.628 49.0024C175.083 49.2322 174.5 49.3472 173.879 49.3472H168.081V31.0357H173.879C174.5 31.0357 175.083 31.1549 175.628 31.3933C176.181 31.6231 176.662 31.9424 177.071 32.351C177.48 32.7596 177.799 33.2406 178.029 33.7939C178.267 34.3388 178.386 34.9219 178.386 35.5434V35.7221C178.386 36.1563 178.327 36.5734 178.207 36.9735C178.097 37.3651 177.935 37.7312 177.722 38.0717C177.509 38.4122 177.258 38.723 176.969 39.0039C176.679 39.2763 176.356 39.5062 175.998 39.6934C176.356 39.8807 176.679 40.1148 176.969 40.3958C177.258 40.6682 177.509 40.9789 177.722 41.3279C177.935 41.6685 178.097 42.0388 178.207 42.4389C178.327 42.8305 178.386 43.2434 178.386 43.6775V44.8523ZM176.739 43.4094C176.739 43.0007 176.662 42.6219 176.509 42.2729C176.356 41.9153 176.143 41.6046 175.871 41.3407C175.607 41.0768 175.296 40.8682 174.939 40.715C174.589 40.5618 174.211 40.4852 173.802 40.4852H169.729V47.7765H173.802C174.211 47.7765 174.589 47.6999 174.939 47.5467C175.296 47.3934 175.607 47.1849 175.871 46.921C176.143 46.6571 176.356 46.3506 176.509 46.0016C176.662 45.644 176.739 45.2609 176.739 44.8523V43.4094ZM176.739 35.5434C176.739 35.1347 176.662 34.7559 176.509 34.4069C176.356 34.0493 176.143 33.7386 175.871 33.4747C175.607 33.2023 175.296 32.9895 174.939 32.8362C174.589 32.683 174.211 32.6064 173.802 32.6064H169.729V38.9145H173.802C174.211 38.9145 174.589 38.8379 174.939 38.6847C175.296 38.5314 175.607 38.3229 175.871 38.059C176.143 37.7865 176.356 37.4758 176.509 37.1268C176.662 36.7692 176.739 36.3862 176.739 35.9775V35.5434ZM191.829 45.1077C191.829 45.7292 191.709 46.3123 191.471 46.8571C191.241 47.402 190.922 47.8787 190.513 48.2873C190.105 48.6959 189.628 49.0194 189.083 49.2578C188.538 49.4876 187.955 49.6026 187.334 49.6026H186.031C185.41 49.6026 184.822 49.4876 184.269 49.2578C183.724 49.0194 183.248 48.6959 182.839 48.2873C182.43 47.8787 182.107 47.402 181.868 46.8571C181.639 46.3123 181.524 45.7292 181.524 45.1077V35.2752C181.524 34.6538 181.639 34.0706 181.868 33.5258C182.107 32.981 182.43 32.5042 182.839 32.0956C183.248 31.687 183.724 31.3677 184.269 31.1379C184.822 30.8995 185.41 30.7804 186.031 30.7804H187.334C187.955 30.7804 188.538 30.8995 189.083 31.1379C189.628 31.3677 190.105 31.687 190.513 32.0956C190.922 32.5042 191.241 32.981 191.471 33.5258C191.709 34.0706 191.829 34.6538 191.829 35.2752V45.1077ZM190.181 35.2752C190.181 34.8666 190.105 34.4878 189.951 34.1387C189.798 33.7812 189.59 33.4705 189.326 33.2066C189.062 32.9426 188.751 32.7341 188.394 32.5808C188.045 32.4276 187.666 32.351 187.257 32.351H186.108C185.699 32.351 185.316 32.4276 184.959 32.5808C184.61 32.7341 184.299 32.9426 184.026 33.2066C183.763 33.4705 183.554 33.7812 183.401 34.1387C183.248 34.4878 183.171 34.8666 183.171 35.2752V45.1077C183.171 45.5163 183.248 45.8994 183.401 46.257C183.554 46.606 183.763 46.9167 184.026 47.1891C184.299 47.453 184.61 47.6616 184.959 47.8148C185.316 47.9681 185.699 48.0447 186.108 48.0447H187.257C187.666 48.0447 188.045 47.9681 188.394 47.8148C188.751 47.6616 189.062 47.453 189.326 47.1891C189.59 46.9167 189.798 46.606 189.951 46.257C190.105 45.8994 190.181 45.5163 190.181 45.1077V35.2752ZM202.883 45.0822H197.086L195.885 49.3472H194.174L199.537 31.0357H200.406L205.794 49.3472H204.096L202.883 45.0822ZM197.533 43.5115H202.449L200.035 35.0709L199.984 34.3941L199.933 35.0709L197.533 43.5115ZM217.002 49.3472L212.035 41.5322H209.775V49.3472H208.127V31.0357H213.937C214.559 31.0357 215.142 31.1549 215.687 31.3933C216.232 31.6231 216.708 31.9424 217.117 32.351C217.526 32.7596 217.845 33.2406 218.075 33.7939C218.313 34.3388 218.432 34.9219 218.432 35.5434V37.0246C218.432 37.6461 218.313 38.2335 218.075 38.7868C217.845 39.3316 217.526 39.8084 217.117 40.217C216.708 40.6256 216.232 40.9491 215.687 41.1875C215.142 41.4173 214.559 41.5322 213.937 41.5322L218.905 49.3472H217.002ZM216.785 35.5434C216.785 35.1347 216.708 34.7559 216.555 34.4069C216.402 34.0493 216.193 33.7386 215.93 33.4747C215.666 33.2023 215.355 32.9895 214.997 32.8362C214.648 32.683 214.269 32.6064 213.861 32.6064H209.775V39.9616H213.861C214.269 39.9616 214.648 39.885 214.997 39.7318C215.355 39.5785 215.666 39.37 215.93 39.106C216.193 38.8336 216.402 38.5229 216.555 38.1739C216.708 37.8163 216.785 37.4332 216.785 37.0246V35.5434ZM232.615 44.8523C232.615 45.4738 232.496 46.0569 232.258 46.6017C232.028 47.1466 231.709 47.6233 231.3 48.0319C230.891 48.4405 230.41 48.764 229.857 49.0024C229.312 49.2322 228.729 49.3472 228.108 49.3472H222.31V31.0357H228.108C228.729 31.0357 229.312 31.1549 229.857 31.3933C230.41 31.6231 230.891 31.9424 231.3 32.351C231.709 32.7596 232.028 33.2406 232.258 33.7939C232.496 34.3388 232.615 34.9219 232.615 35.5434V44.8523ZM230.968 35.5434C230.968 35.1347 230.891 34.7559 230.738 34.4069C230.585 34.0493 230.372 33.7386 230.1 33.4747C229.836 33.2023 229.525 32.9895 229.168 32.8362C228.818 32.683 228.44 32.6064 228.031 32.6064H223.958V47.7765H228.031C228.44 47.7765 228.818 47.6999 229.168 47.5467C229.525 47.3934 229.836 47.1849 230.1 46.921C230.372 46.6571 230.585 46.3506 230.738 46.0016C230.891 45.644 230.968 45.2609 230.968 44.8523V35.5434Z" fill="#FFCB05"/>
<rect width="14.5341" height="2.85557" rx="1.42779" transform="matrix(0.860927 -0.508729 0.507287 0.861777 268.181 48.2686)" fill="#B3E5FF"/>
<rect width="14.5341" height="2.85557" rx="1.42779" transform="matrix(-0.860927 -0.508729 -0.507287 0.861777 273.225 48.2686)" fill="#B3E5FF"/>
<rect width="14.5547" height="2.85152" rx="1.42576" transform="matrix(-4.36279e-08 -1 -1 4.37951e-08 272.306 59.2559)" fill="#B3E5FF"/>
<path d="M262.062 42.0888C261.146 41.5383 261.146 40.2111 262.062 39.6606L269.926 34.9329C270.375 34.6629 270.937 34.6629 271.386 34.9329L279.25 39.6606C280.166 40.2111 280.166 41.5383 279.25 42.0888L271.386 46.8165C270.937 47.0865 270.375 47.0865 269.926 46.8165L262.062 42.0888Z" fill="#0D57AA"/>
<path d="M271.364 49.5002C271.364 48.9889 271.64 48.5172 272.085 48.2662L280.574 43.4823C281.518 42.9501 282.686 43.6324 282.686 44.7163V52.8075C282.686 53.3189 282.41 53.7905 281.965 54.0416L273.476 58.8255C272.532 59.3577 271.364 58.6754 271.364 57.5914V49.5002Z" fill="#0477CC"/>
<path d="M258.627 44.1443C258.627 43.0312 259.852 42.353 260.795 42.9437L269.284 48.2592C269.697 48.5182 269.949 48.9718 269.949 49.4598V57.5943C269.949 58.6783 268.781 59.3606 267.836 58.8284L259.348 54.0445C258.903 53.7934 258.627 53.3218 258.627 52.8104V44.1443Z" fill="#009CF6"/>
</g>
</svg>
