<svg width="350" height="70" viewBox="0 0 350 70" fill="none" xmlns="http://www.w3.org/2000/svg">
<path d="M46.9234 56.7913L27.72 30.4903V49.6258H35.3216V68.5263H0V49.6258H7.16753V20.259H0V1.33496H27.7786L46.9234 27.8121L66.0564 1.33496H93.8468V20.2237H86.644V49.5905H93.8468V68.491H58.5134V49.6258H66.1268V30.4903L46.9234 56.7913Z" fill="#FFCB05"/>
<line x1="114.376" x2="114.376" y2="68.131" stroke="#FFCB05" stroke-width="1.17388"/>
<path d="M136.67 10.8287V30.3662H134.748V10.8287H129.651V8.99566H141.767V10.8287H136.67ZM145.13 30.3662V8.99566H157.157V10.8287H147.053V18.7719H155.234V20.6049H147.053V28.5332H157.157V30.3662H145.13ZM172.845 25.4185C172.845 26.1438 172.706 26.8243 172.428 27.4602C172.159 28.096 171.787 28.6524 171.31 29.1293C170.833 29.6062 170.277 29.9837 169.641 30.2619C169.005 30.5301 168.324 30.6643 167.599 30.6643H166.079C165.354 30.6643 164.668 30.5301 164.023 30.2619C163.387 29.9837 162.83 29.6062 162.353 29.1293C161.877 28.6524 161.499 28.096 161.221 27.4602C160.953 26.8243 160.818 26.1438 160.818 25.4185V13.9434C160.818 13.2181 160.953 12.5376 161.221 11.9017C161.499 11.2658 161.877 10.7095 162.353 10.2326C162.83 9.7557 163.387 9.38313 164.023 9.11489C164.668 8.8367 165.354 8.69761 166.079 8.69761H167.599C168.324 8.69761 169.005 8.8367 169.641 9.11489C170.277 9.38313 170.833 9.7557 171.31 10.2326C171.787 10.7095 172.159 11.2658 172.428 11.9017C172.706 12.5376 172.845 13.2181 172.845 13.9434V14.8077L170.923 15.1058V13.9434C170.923 13.4665 170.833 13.0244 170.654 12.617C170.475 12.1998 170.232 11.8371 169.924 11.5291C169.616 11.2211 169.253 10.9777 168.836 10.7989C168.429 10.6201 167.987 10.5306 167.51 10.5306H166.169C165.692 10.5306 165.245 10.6201 164.827 10.7989C164.42 10.9777 164.057 11.2211 163.739 11.5291C163.431 11.8371 163.188 12.1998 163.009 12.617C162.83 13.0244 162.741 13.4665 162.741 13.9434V25.4185C162.741 25.8954 162.83 26.3425 163.009 26.7597C163.188 27.1671 163.431 27.5297 163.739 27.8476C164.057 28.1556 164.42 28.399 164.827 28.5779C165.245 28.7567 165.692 28.8461 166.169 28.8461H167.51C167.987 28.8461 168.429 28.7567 168.836 28.5779C169.253 28.399 169.616 28.1556 169.924 27.8476C170.232 27.5297 170.475 27.1671 170.654 26.7597C170.833 26.3425 170.923 25.8954 170.923 25.4185V24.2561L172.845 24.569V25.4185ZM187.534 30.3662V20.6049H179.353V30.3662H177.43V8.99566H179.353V18.7719H187.534V8.99566H189.457V30.3662H187.534ZM213.695 25.4185C213.695 26.1438 213.555 26.8243 213.277 27.4602C213.009 28.096 212.636 28.6524 212.16 29.1293C211.683 29.6062 211.126 29.9837 210.49 30.2619C209.855 30.5301 209.174 30.6643 208.449 30.6643H206.929C206.203 30.6643 205.518 30.5301 204.872 30.2619C204.236 29.9837 203.68 29.6062 203.203 29.1293C202.726 28.6524 202.349 28.096 202.07 27.4602C201.802 26.8243 201.668 26.1438 201.668 25.4185V13.9434C201.668 13.2181 201.802 12.5376 202.07 11.9017C202.349 11.2658 202.726 10.7095 203.203 10.2326C203.68 9.7557 204.236 9.38313 204.872 9.11489C205.518 8.8367 206.203 8.69761 206.929 8.69761H208.449C209.174 8.69761 209.855 8.8367 210.49 9.11489C211.126 9.38313 211.683 9.7557 212.16 10.2326C212.636 10.7095 213.009 11.2658 213.277 11.9017C213.555 12.5376 213.695 13.2181 213.695 13.9434V14.8077L211.772 15.1058V13.9434C211.772 13.4665 211.683 13.0244 211.504 12.617C211.325 12.1998 211.082 11.8371 210.774 11.5291C210.466 11.2211 210.103 10.9777 209.686 10.7989C209.278 10.6201 208.836 10.5306 208.359 10.5306H207.018C206.541 10.5306 206.094 10.6201 205.677 10.7989C205.27 10.9777 204.907 11.2211 204.589 11.5291C204.281 11.8371 204.038 12.1998 203.859 12.617C203.68 13.0244 203.59 13.4665 203.59 13.9434V25.4185C203.59 25.8954 203.68 26.3425 203.859 26.7597C204.038 27.1671 204.281 27.5297 204.589 27.8476C204.907 28.1556 205.27 28.399 205.677 28.5779C206.094 28.7567 206.541 28.8461 207.018 28.8461H208.359C208.836 28.8461 209.278 28.7567 209.686 28.5779C210.103 28.399 210.466 28.1556 210.774 27.8476C211.082 27.5297 211.325 27.1671 211.504 26.7597C211.683 26.3425 211.772 25.8954 211.772 25.4185V24.2561L213.695 24.569V25.4185ZM229.994 25.4185C229.994 26.1438 229.854 26.8243 229.576 27.4602C229.308 28.096 228.935 28.6524 228.459 29.1293C227.982 29.6062 227.425 29.9837 226.789 30.2619C226.154 30.5301 225.473 30.6643 224.748 30.6643H223.228C222.502 30.6643 221.817 30.5301 221.171 30.2619C220.535 29.9837 219.979 29.6062 219.502 29.1293C219.025 28.6524 218.648 28.096 218.369 27.4602C218.101 26.8243 217.967 26.1438 217.967 25.4185V13.9434C217.967 13.2181 218.101 12.5376 218.369 11.9017C218.648 11.2658 219.025 10.7095 219.502 10.2326C219.979 9.7557 220.535 9.38313 221.171 9.11489C221.817 8.8367 222.502 8.69761 223.228 8.69761H224.748C225.473 8.69761 226.154 8.8367 226.789 9.11489C227.425 9.38313 227.982 9.7557 228.459 10.2326C228.935 10.7095 229.308 11.2658 229.576 11.9017C229.854 12.5376 229.994 13.2181 229.994 13.9434V25.4185ZM228.071 13.9434C228.071 13.4665 227.982 13.0244 227.803 12.617C227.624 12.1998 227.381 11.8371 227.073 11.5291C226.765 11.2211 226.402 10.9777 225.985 10.7989C225.577 10.6201 225.135 10.5306 224.658 10.5306H223.317C222.84 10.5306 222.393 10.6201 221.976 10.7989C221.569 10.9777 221.206 11.2211 220.888 11.5291C220.58 11.8371 220.337 12.1998 220.158 12.617C219.979 13.0244 219.89 13.4665 219.89 13.9434V25.4185C219.89 25.8954 219.979 26.3425 220.158 26.7597C220.337 27.1671 220.58 27.5297 220.888 27.8476C221.206 28.1556 221.569 28.399 221.976 28.5779C222.393 28.7567 222.84 28.8461 223.317 28.8461H224.658C225.135 28.8461 225.577 28.7567 225.985 28.5779C226.402 28.399 226.765 28.1556 227.073 27.8476C227.381 27.5297 227.624 27.1671 227.803 26.7597C227.982 26.3425 228.071 25.8954 228.071 25.4185V13.9434ZM245.89 30.3662L236.978 14.8077L236.8 13.8838V30.3662H234.877V8.99566H235.876L244.787 24.569L244.981 25.4781V8.99566H246.904V30.3662H245.89ZM263.814 25.4185C263.814 26.1438 263.665 26.8243 263.367 27.4602C263.078 28.096 262.686 28.6524 262.189 29.1293C261.702 29.6062 261.131 29.9837 260.475 30.2619C259.83 30.5301 259.144 30.6643 258.419 30.6643H256.884C256.159 30.6643 255.468 30.5301 254.812 30.2619C254.167 29.9837 253.595 29.6062 253.099 29.1293C252.612 28.6524 252.219 28.096 251.921 27.4602C251.633 26.8243 251.489 26.1438 251.489 25.4185V24.569L253.412 24.2561V25.4185C253.412 25.8954 253.506 26.3425 253.695 26.7597C253.893 27.1671 254.157 27.5297 254.485 27.8476C254.812 28.1556 255.19 28.399 255.617 28.5779C256.054 28.7567 256.511 28.8461 256.988 28.8461H258.329C258.806 28.8461 259.258 28.7567 259.686 28.5779C260.113 28.399 260.49 28.1556 260.818 27.8476C261.146 27.5297 261.404 27.1671 261.593 26.7597C261.792 26.3425 261.891 25.8954 261.891 25.4185V24.7777C261.891 24.0425 261.747 23.4315 261.459 22.9446C261.171 22.4578 260.788 22.0455 260.312 21.7077C259.835 21.36 259.293 21.0669 258.687 20.8284C258.091 20.59 257.475 20.3516 256.839 20.1131C256.203 19.8747 255.582 19.6114 254.976 19.3233C254.38 19.0352 253.844 18.6775 253.367 18.2503C252.89 17.8131 252.507 17.2816 252.219 16.6557C251.931 16.0298 251.787 15.2598 251.787 14.3458V13.9434C251.787 13.2181 251.921 12.5376 252.19 11.9017C252.468 11.2658 252.845 10.7095 253.322 10.2326C253.799 9.7557 254.355 9.38313 254.991 9.11489C255.637 8.8367 256.323 8.69761 257.048 8.69761H258.419C259.144 8.69761 259.825 8.8367 260.461 9.11489C261.096 9.38313 261.653 9.7557 262.13 10.2326C262.607 10.7095 262.979 11.2658 263.247 11.9017C263.526 12.5376 263.665 13.2181 263.665 13.9434V14.4948L261.742 14.8077V13.9434C261.742 13.4665 261.653 13.0244 261.474 12.617C261.295 12.1998 261.052 11.8371 260.744 11.5291C260.436 11.2211 260.073 10.9777 259.656 10.7989C259.248 10.6201 258.806 10.5306 258.329 10.5306H257.137C256.66 10.5306 256.213 10.6201 255.796 10.7989C255.389 10.9777 255.026 11.2211 254.708 11.5291C254.4 11.8371 254.157 12.1998 253.978 12.617C253.799 13.0244 253.71 13.4665 253.71 13.9434V14.3458C253.71 15.0313 253.854 15.6075 254.142 16.0745C254.43 16.5414 254.812 16.9438 255.289 17.2816C255.766 17.6095 256.303 17.8976 256.899 18.146C257.505 18.3844 258.126 18.6328 258.762 18.8911C259.397 19.1395 260.013 19.4177 260.61 19.7256C261.216 20.0237 261.757 20.3963 262.234 20.8434C262.711 21.2805 263.093 21.817 263.381 22.4528C263.67 23.0887 263.814 23.8636 263.814 24.7777V25.4185ZM279.964 25.4185C279.964 26.1438 279.825 26.8243 279.546 27.4602C279.278 28.096 278.906 28.6524 278.429 29.1293C277.952 29.6062 277.395 29.9837 276.76 30.2619C276.124 30.5301 275.443 30.6643 274.718 30.6643H273.198C272.473 30.6643 271.787 30.5301 271.141 30.2619C270.505 29.9837 269.949 29.6062 269.472 29.1293C268.995 28.6524 268.618 28.096 268.34 27.4602C268.071 26.8243 267.937 26.1438 267.937 25.4185V8.99566H269.86V25.4185C269.86 25.8954 269.949 26.3425 270.128 26.7597C270.307 27.1671 270.55 27.5297 270.858 27.8476C271.176 28.1556 271.539 28.399 271.946 28.5779C272.363 28.7567 272.81 28.8461 273.287 28.8461H274.628C275.105 28.8461 275.547 28.7567 275.955 28.5779C276.372 28.399 276.735 28.1556 277.043 27.8476C277.351 27.5297 277.594 27.1671 277.773 26.7597C277.952 26.3425 278.041 25.8954 278.041 25.4185V8.99566H279.964V25.4185ZM284.534 30.3662V8.99566H286.457V28.5332H294.638V30.3662H284.534ZM302.368 10.8287V30.3662H300.446V10.8287H295.349V8.99566H307.465V10.8287H302.368ZM310.828 30.3662V8.99566H312.751V30.3662H310.828ZM328.96 30.3662L320.049 14.8077L319.87 13.8838V30.3662H317.947V8.99566H318.946L327.858 24.569L328.051 25.4781V8.99566H329.974V30.3662H328.96ZM346.884 30.3662H346.273L345.155 28.6524C344.688 29.2684 344.122 29.7602 343.456 30.1278C342.791 30.4854 342.05 30.6643 341.236 30.6643H340.118C339.393 30.6643 338.707 30.5301 338.061 30.2619C337.426 29.9837 336.869 29.6062 336.392 29.1293C335.915 28.6524 335.538 28.096 335.26 27.4602C334.991 26.8243 334.857 26.1438 334.857 25.4185V13.9434C334.857 13.2181 334.991 12.5376 335.26 11.9017C335.538 11.2658 335.915 10.7095 336.392 10.2326C336.869 9.7557 337.426 9.38313 338.061 9.11489C338.707 8.8367 339.393 8.69761 340.118 8.69761H341.638C342.363 8.69761 343.044 8.8367 343.68 9.11489C344.316 9.38313 344.872 9.7557 345.349 10.2326C345.826 10.7095 346.198 11.2658 346.467 11.9017C346.745 12.5376 346.884 13.2181 346.884 13.9434V14.8077L344.961 15.1058V13.9434C344.961 13.4665 344.872 13.0244 344.693 12.617C344.514 12.1998 344.271 11.8371 343.963 11.5291C343.655 11.2211 343.292 10.9777 342.875 10.7989C342.468 10.6201 342.026 10.5306 341.549 10.5306H340.207C339.731 10.5306 339.283 10.6201 338.866 10.7989C338.459 10.9777 338.096 11.2211 337.778 11.5291C337.47 11.8371 337.227 12.1998 337.048 12.617C336.869 13.0244 336.78 13.4665 336.78 13.9434V25.4185C336.78 25.8954 336.869 26.3425 337.048 26.7597C337.227 27.1671 337.47 27.5297 337.778 27.8476C338.096 28.1556 338.459 28.399 338.866 28.5779C339.283 28.7567 339.731 28.8461 340.207 28.8461H341.549C342.026 28.8461 342.468 28.7567 342.875 28.5779C343.292 28.399 343.655 28.1556 343.963 27.8476C344.271 27.5297 344.514 27.1671 344.693 26.7597C344.872 26.3425 344.961 25.8954 344.961 25.4185V20.9626H341.549V19.1295H346.884V30.3662Z" fill="#FFCB05"/>
<path d="M143.511 52.14C143.511 52.8652 143.372 53.5458 143.093 54.1817C142.825 54.8175 142.453 55.3739 141.976 55.8508C141.499 56.3276 140.937 56.7052 140.292 56.9834C139.656 57.2516 138.975 57.3857 138.25 57.3857H131.484V36.0152H138.25C138.975 36.0152 139.656 36.1543 140.292 36.4325C140.937 36.7007 141.499 37.0733 141.976 37.5502C142.453 38.0271 142.825 38.5884 143.093 39.2342C143.372 39.87 143.511 40.5506 143.511 41.2759V52.14ZM141.588 41.2759C141.588 40.799 141.499 40.3569 141.32 39.9495C141.141 39.5322 140.893 39.1696 140.575 38.8616C140.267 38.5437 139.904 38.2953 139.487 38.1165C139.08 37.9376 138.637 37.8482 138.161 37.8482H133.407V55.5527H138.161C138.637 55.5527 139.08 55.4633 139.487 55.2845C139.904 55.1056 140.267 54.8622 140.575 54.5542C140.893 54.2462 141.141 53.8886 141.32 53.4812C141.499 53.0639 141.588 52.6169 141.588 52.14V41.2759ZM156.397 52.4082H149.631L148.23 57.3857H146.233L152.492 36.0152H153.506L159.795 57.3857H157.813L156.397 52.4082ZM150.153 50.5752H155.89L153.074 40.7245L153.014 39.9346L152.954 40.7245L150.153 50.5752ZM174.544 52.438C174.544 53.1633 174.395 53.8439 174.097 54.4797C173.809 55.1156 173.416 55.6719 172.919 56.1488C172.433 56.6257 171.861 57.0032 171.206 57.2814C170.56 57.5497 169.874 57.6838 169.149 57.6838H167.614C166.889 57.6838 166.198 57.5497 165.543 57.2814C164.897 57.0032 164.326 56.6257 163.829 56.1488C163.342 55.6719 162.95 55.1156 162.651 54.4797C162.363 53.8439 162.219 53.1633 162.219 52.438V51.5886L164.142 51.2756V52.438C164.142 52.9149 164.236 53.362 164.425 53.7793C164.624 54.1866 164.887 54.5493 165.215 54.8672C165.543 55.1752 165.92 55.4186 166.347 55.5974C166.785 55.7762 167.242 55.8657 167.718 55.8657H169.06C169.537 55.8657 169.989 55.7762 170.416 55.5974C170.843 55.4186 171.221 55.1752 171.548 54.8672C171.876 54.5493 172.135 54.1866 172.323 53.7793C172.522 53.362 172.621 52.9149 172.621 52.438V51.7972C172.621 51.062 172.477 50.451 172.189 49.9642C171.901 49.4773 171.519 49.065 171.042 48.7272C170.565 48.3795 170.023 48.0864 169.417 47.848C168.821 47.6095 168.205 47.3711 167.569 47.1326C166.934 46.8942 166.313 46.6309 165.707 46.3428C165.11 46.0547 164.574 45.697 164.097 45.2698C163.62 44.8327 163.238 44.3011 162.95 43.6752C162.661 43.0493 162.517 42.2793 162.517 41.3653V40.9629C162.517 40.2376 162.651 39.5571 162.92 38.9212C163.198 38.2854 163.575 37.729 164.052 37.2521C164.529 36.7752 165.086 36.4027 165.721 36.1344C166.367 35.8562 167.053 35.7171 167.778 35.7171H169.149C169.874 35.7171 170.555 35.8562 171.191 36.1344C171.827 36.4027 172.383 36.7752 172.86 37.2521C173.337 37.729 173.709 38.2854 173.978 38.9212C174.256 39.5571 174.395 40.2376 174.395 40.9629V41.5143L172.472 41.8273V40.9629C172.472 40.486 172.383 40.0439 172.204 39.6366C172.025 39.2193 171.782 38.8567 171.474 38.5487C171.166 38.2407 170.803 37.9973 170.386 37.8184C169.979 37.6396 169.537 37.5502 169.06 37.5502H167.867C167.391 37.5502 166.943 37.6396 166.526 37.8184C166.119 37.9973 165.756 38.2407 165.438 38.5487C165.13 38.8567 164.887 39.2193 164.708 39.6366C164.529 40.0439 164.44 40.486 164.44 40.9629V41.3653C164.44 42.0508 164.584 42.627 164.872 43.094C165.16 43.561 165.543 43.9633 166.02 44.3011C166.496 44.629 167.033 44.9171 167.629 45.1655C168.235 45.4039 168.856 45.6523 169.492 45.9106C170.128 46.159 170.744 46.4372 171.34 46.7452C171.946 47.0432 172.487 47.4158 172.964 47.8629C173.441 48.3 173.824 48.8365 174.112 49.4724C174.4 50.1082 174.544 50.8832 174.544 51.7972V52.438ZM189.084 57.3857V47.6244H180.903V57.3857H178.98V36.0152H180.903V45.7914H189.084V36.0152H191.007V57.3857H189.084ZM208.23 52.14C208.23 52.8652 208.091 53.5458 207.813 54.1817C207.544 54.8175 207.172 55.3739 206.695 55.8508C206.218 56.3276 205.657 56.7052 205.011 56.9834C204.375 57.2516 203.694 57.3857 202.969 57.3857H196.203V36.0152H202.969C203.694 36.0152 204.375 36.1543 205.011 36.4325C205.657 36.7007 206.218 37.0733 206.695 37.5502C207.172 38.0271 207.544 38.5884 207.813 39.2342C208.091 39.87 208.23 40.5506 208.23 41.2759V41.4845C208.23 41.9912 208.16 42.478 208.021 42.945C207.892 43.402 207.703 43.8292 207.455 44.2266C207.207 44.624 206.913 44.9867 206.576 45.3145C206.238 45.6324 205.86 45.9007 205.443 46.1193C205.86 46.3378 206.238 46.6111 206.576 46.9389C206.913 47.2568 207.207 47.6195 207.455 48.0268C207.703 48.4242 207.892 48.8564 208.021 49.3234C208.16 49.7804 208.23 50.2622 208.23 50.7689V52.14ZM206.307 50.456C206.307 49.9791 206.218 49.537 206.039 49.1296C205.86 48.7123 205.612 48.3497 205.294 48.0417C204.986 47.7337 204.623 47.4903 204.206 47.3115C203.799 47.1326 203.357 47.0432 202.88 47.0432H198.126V55.5527H202.88C203.357 55.5527 203.799 55.4633 204.206 55.2845C204.623 55.1056 204.986 54.8622 205.294 54.5542C205.612 54.2462 205.86 53.8886 206.039 53.4812C206.218 53.0639 206.307 52.6169 206.307 52.14V50.456ZM206.307 41.2759C206.307 40.799 206.218 40.3569 206.039 39.9495C205.86 39.5322 205.612 39.1696 205.294 38.8616C204.986 38.5437 204.623 38.2953 204.206 38.1165C203.799 37.9376 203.357 37.8482 202.88 37.8482H198.126V45.2102H202.88C203.357 45.2102 203.799 45.1208 204.206 44.9419C204.623 44.7631 204.986 44.5197 205.294 44.2117C205.612 43.8938 205.86 43.5311 206.039 43.1238C206.218 42.7065 206.307 42.2594 206.307 41.7826V41.2759ZM223.918 52.438C223.918 53.1633 223.779 53.8439 223.501 54.4797C223.232 55.1156 222.86 55.6719 222.383 56.1488C221.906 56.6257 221.35 57.0032 220.714 57.2814C220.078 57.5497 219.397 57.6838 218.672 57.6838H217.152C216.427 57.6838 215.741 57.5497 215.095 57.2814C214.46 57.0032 213.903 56.6257 213.426 56.1488C212.949 55.6719 212.572 55.1156 212.294 54.4797C212.025 53.8439 211.891 53.1633 211.891 52.438V40.9629C211.891 40.2376 212.025 39.5571 212.294 38.9212C212.572 38.2854 212.949 37.729 213.426 37.2521C213.903 36.7752 214.46 36.4027 215.095 36.1344C215.741 35.8562 216.427 35.7171 217.152 35.7171H218.672C219.397 35.7171 220.078 35.8562 220.714 36.1344C221.35 36.4027 221.906 36.7752 222.383 37.2521C222.86 37.729 223.232 38.2854 223.501 38.9212C223.779 39.5571 223.918 40.2376 223.918 40.9629V52.438ZM221.995 40.9629C221.995 40.486 221.906 40.0439 221.727 39.6366C221.548 39.2193 221.305 38.8567 220.997 38.5487C220.689 38.2407 220.326 37.9973 219.909 37.8184C219.502 37.6396 219.06 37.5502 218.583 37.5502H217.241C216.765 37.5502 216.317 37.6396 215.9 37.8184C215.493 37.9973 215.13 38.2407 214.812 38.5487C214.504 38.8567 214.261 39.2193 214.082 39.6366C213.903 40.0439 213.814 40.486 213.814 40.9629V52.438C213.814 52.9149 213.903 53.362 214.082 53.7793C214.261 54.1866 214.504 54.5493 214.812 54.8672C215.13 55.1752 215.493 55.4186 215.9 55.5974C216.317 55.7762 216.765 55.8657 217.241 55.8657H218.583C219.06 55.8657 219.502 55.7762 219.909 55.5974C220.326 55.4186 220.689 55.1752 220.997 54.8672C221.305 54.5493 221.548 54.1866 221.727 53.7793C221.906 53.362 221.995 52.9149 221.995 52.438V40.9629ZM236.819 52.4082H230.053L228.652 57.3857H226.655L232.915 36.0152H233.928L240.217 57.3857H238.235L236.819 52.4082ZM230.575 50.5752H236.312L233.496 40.7245L233.436 39.9346L233.377 40.7245L230.575 50.5752ZM253.297 57.3857L247.5 48.2653H244.862V57.3857H242.939V36.0152H249.72C250.446 36.0152 251.126 36.1543 251.762 36.4325C252.398 36.7007 252.954 37.0733 253.431 37.5502C253.908 38.0271 254.28 38.5884 254.549 39.2342C254.827 39.87 254.966 40.5506 254.966 41.2759V43.0046C254.966 43.7299 254.827 44.4154 254.549 45.0612C254.28 45.697 253.908 46.2534 253.431 46.7303C252.954 47.2072 252.398 47.5847 251.762 47.8629C251.126 48.1311 250.446 48.2653 249.72 48.2653L255.517 57.3857H253.297ZM253.044 41.2759C253.044 40.799 252.954 40.3569 252.775 39.9495C252.596 39.5322 252.353 39.1696 252.045 38.8616C251.737 38.5437 251.374 38.2953 250.957 38.1165C250.55 37.9376 250.108 37.8482 249.631 37.8482H244.862V46.4322H249.631C250.108 46.4322 250.55 46.3428 250.957 46.164C251.374 45.9851 251.737 45.7417 252.045 45.4337C252.353 45.1158 252.596 44.7532 252.775 44.3458C252.954 43.9286 253.044 43.4815 253.044 43.0046V41.2759ZM271.518 52.14C271.518 52.8652 271.379 53.5458 271.101 54.1817C270.833 54.8175 270.46 55.3739 269.983 55.8508C269.507 56.3276 268.945 56.7052 268.299 56.9834C267.664 57.2516 266.983 57.3857 266.258 57.3857H259.492V36.0152H266.258C266.983 36.0152 267.664 36.1543 268.299 36.4325C268.945 36.7007 269.507 37.0733 269.983 37.5502C270.46 38.0271 270.833 38.5884 271.101 39.2342C271.379 39.87 271.518 40.5506 271.518 41.2759V52.14ZM269.596 41.2759C269.596 40.799 269.507 40.3569 269.328 39.9495C269.149 39.5322 268.9 39.1696 268.583 38.8616C268.275 38.5437 267.912 38.2953 267.495 38.1165C267.087 37.9376 266.645 37.8482 266.168 37.8482H261.414V55.5527H266.168C266.645 55.5527 267.087 55.4633 267.495 55.2845C267.912 55.1056 268.275 54.8622 268.583 54.5542C268.9 54.2462 269.149 53.8886 269.328 53.4812C269.507 53.0639 269.596 52.6169 269.596 52.14V41.2759Z" fill="#FFCB05"/>
<rect width="16.9648" height="3.33212" rx="1.66606" transform="matrix(0.861066 -0.508493 0.507523 0.861638 313.079 56.292)" fill="#B3E5FF"/>
<rect width="16.9648" height="3.33212" rx="1.66606" transform="matrix(-0.861066 -0.508493 -0.507523 0.861638 318.97 56.292)" fill="#B3E5FF"/>
<rect width="16.9809" height="3.32894" rx="1.66447" transform="matrix(-4.36552e-08 -1 -1 4.37676e-08 317.896 69.1104)" fill="#B3E5FF"/>
<path d="M305.94 49.083C304.871 48.4407 304.871 46.891 305.94 46.2487L315.121 40.7332C315.645 40.4184 316.3 40.4184 316.823 40.7332L326.004 46.2487C327.073 46.891 327.073 48.4407 326.004 49.083L316.823 54.5986C316.3 54.9133 315.645 54.9133 315.121 54.5986L305.94 49.083Z" fill="#0D57AA"/>
<path d="M316.796 57.7298C316.796 57.1328 317.118 56.5823 317.638 56.2893L327.549 50.7074C328.651 50.0867 330.013 50.883 330.013 52.1478V61.5872C330.013 62.1841 329.691 62.7347 329.171 63.0276L319.26 68.6095C318.158 69.2302 316.796 68.4339 316.796 67.1691V57.7298Z" fill="#0477CC"/>
<path d="M301.928 51.479C301.928 50.18 303.357 49.3885 304.458 50.0776L314.369 56.2797C314.852 56.5819 315.145 57.1114 315.145 57.6811V67.171C315.145 68.4359 313.782 69.2322 312.68 68.6115L302.77 63.0295C302.25 62.7366 301.928 62.186 301.928 61.5891V51.479Z" fill="#009CF6"/>
</svg>
