<svg width="79" height="78" viewBox="0 0 79 78" fill="none" xmlns="http://www.w3.org/2000/svg">
<path fill-rule="evenodd" clip-rule="evenodd" d="M7.8125 39C7.8125 21.4987 21.9987 7.3125 39.5 7.3125C57.0013 7.3125 71.1875 21.4987 71.1875 39C71.1875 56.5013 57.0013 70.6875 39.5 70.6875C21.9987 70.6875 7.8125 56.5013 7.8125 39ZM51.2325 33.1045C51.4275 32.8447 51.5686 32.5485 51.6475 32.2333C51.7264 31.9182 51.7415 31.5905 51.6919 31.2694C51.6423 30.9483 51.5291 30.6404 51.3588 30.3638C51.1885 30.0871 50.9646 29.8473 50.7003 29.6584C50.436 29.4695 50.1366 29.3353 49.8198 29.2637C49.5029 29.1922 49.1749 29.1847 48.8551 29.2418C48.5352 29.2988 48.23 29.4192 47.9574 29.5958C47.6848 29.7725 47.4502 30.0019 47.2675 30.2705L36.7505 44.993L31.4725 39.715C31.0104 39.2844 30.3993 39.05 29.7678 39.0612C29.1363 39.0723 28.5338 39.3281 28.0872 39.7747C27.6406 40.2213 27.3848 40.8238 27.3737 41.4553C27.3625 42.0868 27.5969 42.6979 28.0275 43.16L35.34 50.4725C35.5902 50.7225 35.8919 50.9151 36.224 51.0368C36.5561 51.1586 36.9107 51.2066 37.2632 51.1775C37.6158 51.1485 37.9577 51.043 38.2654 50.8685C38.5731 50.694 38.8391 50.4546 39.045 50.167L51.2325 33.1045Z" fill="#34C759"/>
</svg>
