<svg width="14" height="14" viewBox="0 0 14 14" fill="none" xmlns="http://www.w3.org/2000/svg">
<path d="M1.3125 7.44333C1.3125 8.37667 1.96758 9.18984 2.89158 9.32575C3.51458 9.41734 4.14458 9.4885 4.78042 9.53808C5.05225 9.55967 5.30133 9.702 5.453 9.9295L7 12.25L8.547 9.9295C8.69867 9.702 8.94775 9.55967 9.21958 9.53867C9.85542 9.4885 10.4854 9.41734 11.1084 9.32575C12.0324 9.18984 12.6875 8.37725 12.6875 7.44275V3.93225C12.6875 2.99775 12.0324 2.18517 11.1084 2.04925C9.74806 1.84958 8.37493 1.74957 7 1.75C5.60467 1.75 4.23267 1.85208 2.89158 2.04925C1.96758 2.18517 1.3125 2.99833 1.3125 3.93225V7.44275V7.44333Z" stroke="#212121" stroke-width="0.875" stroke-linecap="round" stroke-linejoin="round"/>
</svg>
