<svg width="40" height="40" viewBox="0 0 40 40" fill="none" xmlns="http://www.w3.org/2000/svg">
<rect width="40" height="40" fill="#E1F5FF"/>
<path d="M15.9958 11.2704H30.17V29.4255H27.375V32H12.9145C12.0624 32 11.2915 31.654 10.7334 31.0966C10.1753 30.5386 9.83008 29.7669 9.83008 28.9156C9.83008 28.862 9.83161 28.8092 9.83391 28.7571V11.0806C9.83391 10.2331 10.1807 9.4622 10.738 8.90411C11.2961 8.34603 12.067 8 12.9145 8C13.7619 8 14.5329 8.34679 15.0909 8.90411C15.649 9.4622 15.9951 10.2323 15.9951 11.0806V11.2712L15.9958 11.2704ZM19.6674 14.4796H25.4772V15.5001H19.6674V14.4796ZM17.6264 25.1958H27.5181V26.2163H17.6264V25.1958ZM17.6264 23.0522H27.5181V24.0727H17.6264V23.0522ZM17.6264 20.9087H27.5181V21.9292H17.6264V20.9087ZM17.6264 18.7652H27.5181V19.7856H17.6264V18.7652ZM17.6264 16.6216H27.5181V17.6421H17.6264V16.6216ZM26.3545 29.4239H15.4852H14.9746V28.9133V28.7809C14.9417 28.2633 14.7181 27.7971 14.3744 27.4534C14.0016 27.0806 13.484 26.8486 12.9145 26.8486C12.3449 26.8486 11.8282 27.0798 11.4546 27.4534C11.0473 27.8607 10.8674 28.3453 10.8498 28.9133C10.8498 29.4829 11.081 29.9996 11.4546 30.3732C11.8274 30.746 12.3441 30.978 12.9145 30.978H26.3545V29.4239ZM14.9746 26.6174V11.2697V11.079C14.9746 10.5133 14.7426 9.99809 14.369 9.6245C13.9954 9.25091 13.4802 9.01895 12.9145 9.01895C12.3487 9.01895 11.8328 9.25091 11.4599 9.6245C11.0863 9.99809 10.8544 10.5133 10.8544 11.079V26.6182C11.4002 26.1275 12.1229 25.8289 12.9145 25.8289C13.7061 25.8289 14.4287 26.1275 14.9746 26.6174ZM29.1487 12.2901H15.9951V28.4034H27.375H29.1495V12.2901H29.1487Z" fill="#0D57AA"/>
</svg>
