<svg width="12" height="12" viewBox="0 0 12 12" fill="none" xmlns="http://www.w3.org/2000/svg">
<path d="M6 4.5V6.375M10.5 6C10.5 6.59095 10.3836 7.17611 10.1575 7.72208C9.93131 8.26804 9.59984 8.76412 9.18198 9.18198C8.76412 9.59984 8.26804 9.93131 7.72208 10.1575C7.17611 10.3836 6.59095 10.5 6 10.5C5.40905 10.5 4.82389 10.3836 4.27792 10.1575C3.73196 9.93131 3.23588 9.59984 2.81802 9.18198C2.40016 8.76412 2.06869 8.26804 1.84254 7.72208C1.6164 7.17611 1.5 6.59095 1.5 6C1.5 4.80653 1.97411 3.66193 2.81802 2.81802C3.66193 1.97411 4.80653 1.5 6 1.5C7.19347 1.5 8.33807 1.97411 9.18198 2.81802C10.0259 3.66193 10.5 4.80653 10.5 6ZM6 7.875H6.004V7.879H6V7.875Z" stroke="#FF0000" stroke-width="0.75" stroke-linecap="round" stroke-linejoin="round"/>
</svg>
