<svg width="40" height="40" viewBox="0 0 40 40" fill="none" xmlns="http://www.w3.org/2000/svg">
<rect width="40" height="40" fill="#E1F5FF"/>
<path d="M20 32C22.66 31.9998 25.2446 31.1163 27.348 29.488C29.4515 27.8598 30.9546 25.5791 31.6213 23.004M20 32C17.34 31.9998 14.7554 31.1163 12.652 29.488C10.5485 27.8598 9.04544 25.5791 8.37867 23.004M20 32C23.3133 32 26 26.6267 26 20C26 13.3733 23.3133 8 20 8M20 32C16.6867 32 14 26.6267 14 20C14 13.3733 16.6867 8 20 8M31.6213 23.004C31.868 22.044 32 21.0373 32 20C32.0033 17.9361 31.4718 15.9066 30.4573 14.1093M31.6213 23.004C28.0656 24.9752 24.0656 26.0064 20 26C15.784 26 11.8227 24.9133 8.37867 23.004M8.37867 23.004C8.12633 22.0226 7.9991 21.0133 8 20C8 17.86 8.56 15.8493 9.54267 14.1093M20 8C22.1283 7.99911 24.2186 8.56448 26.0563 9.63809C27.8939 10.7117 29.4129 12.2549 30.4573 14.1093M20 8C17.8717 7.99911 15.7814 8.56448 13.9437 9.63809C12.1061 10.7117 10.5871 12.2549 9.54267 14.1093M30.4573 14.1093C27.5542 16.6239 23.8407 18.0055 20 18C16.0027 18 12.3467 16.5333 9.54267 14.1093" stroke="#0D57AA" stroke-width="2" stroke-linecap="round" stroke-linejoin="round"/>
</svg>
