<svg width="40" height="40" viewBox="0 0 40 40" fill="none" xmlns="http://www.w3.org/2000/svg">
<rect width="40" height="40" fill="#E1F5FF"/>
<path d="M25.058 23.146C25.5258 22.8265 26.0745 22.6461 26.6405 22.6254C27.2066 22.6048 27.767 22.7449 28.2568 23.0294C28.7466 23.314 29.1458 23.7314 29.4083 24.2334C29.6708 24.7354 29.7858 25.3014 29.74 25.866C28.5402 26.2853 27.2657 26.4485 25.999 26.345C25.9951 25.2116 25.6687 24.1018 25.058 23.147C24.5159 22.2968 23.7681 21.597 22.8838 21.1125C21.9995 20.628 21.0073 20.3743 19.999 20.375C18.9908 20.3745 17.9988 20.6282 17.1147 21.1127C16.2306 21.5973 15.483 22.2969 14.941 23.147M25.998 26.344L25.999 26.375C25.999 26.6 25.987 26.822 25.962 27.041C24.1473 28.0821 22.0911 28.6283 19.999 28.625C17.829 28.625 15.792 28.049 14.036 27.041C14.0103 26.8096 13.9979 26.5769 13.999 26.344M13.999 26.344C12.7326 26.4513 11.4589 26.2887 10.26 25.867C10.2143 25.3026 10.3294 24.7367 10.5918 24.2349C10.8542 23.7331 11.2533 23.3158 11.743 23.0313C12.2326 22.7468 12.7928 22.6067 13.3587 22.6271C13.9246 22.6476 14.4732 22.8278 14.941 23.147M13.999 26.344C14.0026 25.2107 14.3306 24.1019 14.941 23.147M22.999 14.375C22.999 15.1706 22.6829 15.9337 22.1203 16.4963C21.5577 17.0589 20.7946 17.375 19.999 17.375C19.2033 17.375 18.4403 17.0589 17.8777 16.4963C17.315 15.9337 16.999 15.1706 16.999 14.375C16.999 13.5794 17.315 12.8163 17.8777 12.2537C18.4403 11.6911 19.2033 11.375 19.999 11.375C20.7946 11.375 21.5577 11.6911 22.1203 12.2537C22.6829 12.8163 22.999 13.5794 22.999 14.375ZM28.999 17.375C28.999 17.6705 28.9408 17.9631 28.8277 18.236C28.7146 18.509 28.5489 18.7571 28.34 18.966C28.131 19.1749 27.883 19.3407 27.61 19.4537C27.337 19.5668 27.0445 19.625 26.749 19.625C26.4535 19.625 26.1609 19.5668 25.8879 19.4537C25.615 19.3407 25.3669 19.1749 25.158 18.966C24.9491 18.7571 24.7833 18.509 24.6702 18.236C24.5572 17.9631 24.499 17.6705 24.499 17.375C24.499 16.7783 24.736 16.206 25.158 15.784C25.5799 15.3621 26.1522 15.125 26.749 15.125C27.3457 15.125 27.918 15.3621 28.34 15.784C28.7619 16.206 28.999 16.7783 28.999 17.375ZM15.499 17.375C15.499 17.6705 15.4408 17.9631 15.3277 18.236C15.2146 18.509 15.0489 18.7571 14.84 18.966C14.631 19.1749 14.383 19.3407 14.11 19.4537C13.837 19.5668 13.5445 19.625 13.249 19.625C12.9535 19.625 12.6609 19.5668 12.3879 19.4537C12.115 19.3407 11.8669 19.1749 11.658 18.966C11.4491 18.7571 11.2833 18.509 11.1702 18.236C11.0572 17.9631 10.999 17.6705 10.999 17.375C10.999 16.7783 11.236 16.206 11.658 15.784C12.0799 15.3621 12.6522 15.125 13.249 15.125C13.8457 15.125 14.418 15.3621 14.84 15.784C15.2619 16.206 15.499 16.7783 15.499 17.375Z" stroke="#0D57AA" stroke-width="1.5" stroke-linecap="round" stroke-linejoin="round"/>
</svg>
