<svg width="40" height="24" viewBox="0 0 40 24" fill="none" xmlns="http://www.w3.org/2000/svg">
<path d="M25.058 15.146C25.5258 14.8265 26.0745 14.6461 26.6406 14.6254C27.2067 14.6048 27.767 14.7449 28.2568 15.0294C28.7466 15.314 29.1459 15.7314 29.4083 16.2334C29.6708 16.7354 29.7858 17.3014 29.74 17.866C28.5402 18.2853 27.2658 18.4485 25.999 18.345C25.9951 17.2116 25.6687 16.1018 25.058 15.147C24.5159 14.2968 23.7681 13.597 22.8838 13.1125C21.9996 12.628 21.0073 12.3743 19.999 12.375C18.9908 12.3745 17.9988 12.6282 17.1147 13.1127C16.2306 13.5973 15.483 14.2969 14.941 15.147M25.998 18.344L25.999 18.375C25.999 18.6 25.987 18.822 25.962 19.041C24.1474 20.0821 22.0911 20.6283 19.999 20.625C17.829 20.625 15.792 20.049 14.036 19.041C14.0103 18.8096 13.9979 18.5769 13.999 18.344M13.999 18.344C12.7326 18.4513 11.4589 18.2887 10.26 17.867C10.2144 17.3026 10.3294 16.7367 10.5918 16.2349C10.8543 15.7331 11.2534 15.3158 11.743 15.0313C12.2326 14.7468 12.7928 14.6067 13.3587 14.6271C13.9246 14.6476 14.4732 14.8278 14.941 15.147M13.999 18.344C14.0026 17.2107 14.3306 16.1019 14.941 15.147M22.999 6.375C22.999 7.17065 22.6829 7.93371 22.1203 8.49632C21.5577 9.05893 20.7947 9.375 19.999 9.375C19.2034 9.375 18.4403 9.05893 17.8777 8.49632C17.3151 7.93371 16.999 7.17065 16.999 6.375C16.999 5.57935 17.3151 4.81629 17.8777 4.25368C18.4403 3.69107 19.2034 3.375 19.999 3.375C20.7947 3.375 21.5577 3.69107 22.1203 4.25368C22.6829 4.81629 22.999 5.57935 22.999 6.375ZM28.999 9.375C28.999 9.67047 28.9408 9.96306 28.8277 10.236C28.7147 10.509 28.5489 10.7571 28.34 10.966C28.1311 11.1749 27.883 11.3407 27.61 11.4537C27.3371 11.5668 27.0445 11.625 26.749 11.625C26.4535 11.625 26.161 11.5668 25.888 11.4537C25.615 11.3407 25.3669 11.1749 25.158 10.966C24.9491 10.7571 24.7834 10.509 24.6703 10.236C24.5572 9.96306 24.499 9.67047 24.499 9.375C24.499 8.77826 24.7361 8.20597 25.158 7.78401C25.58 7.36205 26.1523 7.125 26.749 7.125C27.3457 7.125 27.918 7.36205 28.34 7.78401C28.762 8.20597 28.999 8.77826 28.999 9.375ZM15.499 9.375C15.499 9.67047 15.4408 9.96306 15.3277 10.236C15.2147 10.509 15.0489 10.7571 14.84 10.966C14.6311 11.1749 14.383 11.3407 14.11 11.4537C13.8371 11.5668 13.5445 11.625 13.249 11.625C12.9535 11.625 12.661 11.5668 12.388 11.4537C12.115 11.3407 11.867 11.1749 11.658 10.966C11.4491 10.7571 11.2834 10.509 11.1703 10.236C11.0572 9.96306 10.999 9.67047 10.999 9.375C10.999 8.77826 11.2361 8.20597 11.658 7.78401C12.08 7.36205 12.6523 7.125 13.249 7.125C13.8457 7.125 14.418 7.36205 14.84 7.78401C15.262 8.20597 15.499 8.77826 15.499 9.375Z" stroke="#0D57AA" stroke-width="1.5" stroke-linecap="round" stroke-linejoin="round"/>
</svg>
