<svg width="40" height="40" viewBox="0 0 40 40" fill="none" xmlns="http://www.w3.org/2000/svg">
<path d="M20 19.3392C19.8247 19.3392 19.6565 19.4088 19.5326 19.5328C19.4086 19.6568 19.3389 19.8249 19.3389 20.0003V21.8336C19.3389 22.0089 19.4086 22.1771 19.5326 22.3011C19.6565 22.4251 19.8247 22.4947 20 22.4947C20.1754 22.4947 20.3435 22.4251 20.4675 22.3011C20.5915 22.1771 20.6611 22.0089 20.6611 21.8336V20.0003C20.6611 19.8249 20.5915 19.6568 20.4675 19.5328C20.3435 19.4088 20.1754 19.3392 20 19.3392Z" fill="#0D57AA" stroke="#0D57AA" stroke-width="0.1"/>
<path d="M20.4711 17.6994L20.471 17.6995C20.5283 17.7629 20.5746 17.8355 20.6079 17.9142C20.608 17.9145 20.6082 17.9148 20.6083 17.9152L20.5622 17.9346C20.5965 18.0071 20.6133 18.0868 20.6111 18.167L20.4711 17.6994ZM20.4711 17.6994L20.4678 17.6964C20.3404 17.5788 20.1734 17.5135 20.0001 17.5135C19.8267 17.5135 19.6597 17.5788 19.5323 17.6964L19.5321 17.6962L19.5292 17.6995C19.4714 17.763 19.4248 17.8359 19.3915 17.9151C19.3577 17.9946 19.3398 18.08 19.3389 18.1665L19.3389 18.1665V18.167C19.3389 18.3423 19.4086 18.5105 19.5326 18.6345C19.6565 18.7585 19.8247 18.8281 20 18.8281C20.1754 18.8281 20.3435 18.7585 20.4675 18.6345C20.5913 18.5107 20.661 18.3428 20.6611 18.1677L20.4711 17.6994Z" fill="#0D57AA" stroke="#0D57AA" stroke-width="0.1"/>
<path d="M27.766 9.56133L27.7659 9.56133C25.0788 9.56465 22.4262 10.1654 20 11.32C17.5738 10.1654 14.9212 9.56465 12.2341 9.56133H12.234H9.61111C9.43577 9.56133 9.26762 9.63098 9.14364 9.75496C9.01965 9.87895 8.95 10.0471 8.95 10.2224V27.9447C8.95 28.12 9.01965 28.2882 9.14364 28.4121C9.26762 28.5361 9.43577 28.6058 9.61111 28.6058H12.2339C14.8268 28.609 17.3838 29.2126 19.7044 30.3694C19.7105 30.3725 19.7162 30.3741 19.7204 30.375C19.7228 30.3755 19.7251 30.3758 19.7268 30.3761C19.8119 30.4175 19.9053 30.4391 20 30.4391C20.0947 30.4391 20.1881 30.4175 20.2732 30.3761C20.2749 30.3758 20.2772 30.3755 20.2796 30.375C20.2838 30.3741 20.2895 30.3725 20.2956 30.3694C22.6162 29.2126 25.1731 28.609 27.7661 28.6058H30.3889C30.5642 28.6058 30.7324 28.5361 30.8564 28.4121C30.9803 28.2882 31.05 28.12 31.05 27.9447V10.2224C31.05 10.0471 30.9803 9.87895 30.8564 9.75496C30.7324 9.63098 30.5642 9.56133 30.3889 9.56133L27.766 9.56133ZM19.3389 24.8906V28.7501C17.0939 27.7875 14.6773 27.2886 12.2341 27.2836H12.234H10.2722V10.8836L12.2339 10.8836C14.6904 10.8888 17.1158 11.4329 19.3389 12.4775V15.1098C18.1626 15.2677 17.0821 15.8444 16.296 16.735C15.5003 17.6365 15.0611 18.7977 15.0611 20.0002C15.0611 21.2028 15.5003 22.3639 16.296 23.2655C17.0821 24.156 18.1626 24.7327 19.3389 24.8906ZM27.766 27.2836H27.7659C25.3227 27.2886 22.9061 27.7875 20.6611 28.7501V24.8906C21.8374 24.7327 22.9179 24.156 23.704 23.2655C24.4997 22.3639 24.9389 21.2028 24.9389 20.0002C24.9389 18.7977 24.4997 17.6365 23.704 16.735C22.9179 15.8444 21.8374 15.2677 20.6611 15.1098V12.4775C22.8842 11.4329 25.3096 10.8888 27.7661 10.8836L29.7278 10.8836V27.2836H27.766ZM19.9999 23.6169C19.2847 23.6169 18.5854 23.4048 17.9907 23.0074C17.3959 22.61 16.9324 22.0451 16.6586 21.3843C16.3849 20.7234 16.3133 19.9962 16.4528 19.2946C16.5924 18.5931 16.9368 17.9486 17.4426 17.4428C17.9484 16.937 18.5929 16.5926 19.2944 16.453C19.996 16.3135 20.7232 16.3851 21.384 16.6589C22.0449 16.9326 22.6097 17.3961 23.0071 17.9909C23.4045 18.5856 23.6167 19.2849 23.6167 20.0002C23.6156 20.9591 23.2342 21.8784 22.5562 22.5564C21.8782 23.2345 20.9588 23.6158 19.9999 23.6169Z" fill="#0D57AA" stroke="#0D57AA" stroke-width="0.1"/>
</svg>
