<svg width="96" height="32" viewBox="0 0 96 32" fill="none" xmlns="http://www.w3.org/2000/svg">
    <path d="M10.5 19L12.1187 21.5893C12.3883 22.0209 12.7632 22.3769 13.2082 22.6236C13.6533 22.8704 14.1538 22.9999 14.6627 23H17.3373C18.372 23 19.3333 22.4667 19.8813 21.5893L21.5 19M3.21333 12H9.39467C9.88853 12 10.3748 12.122 10.8102 12.3551C11.2456 12.5881 11.6167 12.9251 11.8907 13.336L12.1093 13.664C12.3833 14.0749 12.7544 14.4119 13.1898 14.6449C13.6252 14.878 14.1115 15 14.6053 15H17.3947C17.8885 15 18.3748 14.878 18.8102 14.6449C19.2456 14.4119 19.6167 14.0749 19.8907 13.664L20.1093 13.336C20.3833 12.9251 20.7544 12.5881 21.1898 12.3551C21.6252 12.122 22.1115 12 22.6053 12H28.7867M3.21333 12C3.07262 12.3529 3.00022 12.7294 3 13.1093V16C3 16.7956 3.31607 17.5587 3.87868 18.1213C4.44129 18.6839 5.20435 19 6 19H26C26.7957 19 27.5587 18.6839 28.1213 18.1213C28.6839 17.5587 29 16.7956 29 16V13.1093C29 12.7267 28.9267 12.3493 28.7867 12M3.21333 12C3.33554 11.693 3.50764 11.4083 3.72267 11.1573L8.10267 6.048C8.38422 5.71941 8.73353 5.45562 9.12662 5.27472C9.51971 5.09383 9.94728 5.00011 10.38 5H21.62C22.496 5 23.328 5.38267 23.8987 6.048L28.2773 11.1573C28.4947 11.4107 28.6653 11.696 28.7867 12M6 27H26C26.7957 27 27.5587 26.6839 28.1213 26.1213C28.6839 25.5587 29 24.7957 29 24V20.5C29 19.672 28.328 19 27.5 19H4.5C3.672 19 3 19.672 3 20.5V24C3 24.7957 3.31607 25.5587 3.87868 26.1213C4.44129 26.6839 5.20435 27 6 27Z" fill="#B3E5FF"/>
    <path d="M10.5 19L12.1187 21.5893C12.3883 22.0209 12.7632 22.3769 13.2082 22.6236C13.6533 22.8704 14.1538 22.9999 14.6627 23H17.3373C18.372 23 19.3333 22.4667 19.8813 21.5893L21.5 19M3.21333 12H9.39467C9.88853 12 10.3748 12.122 10.8102 12.3551C11.2456 12.5881 11.6167 12.9251 11.8907 13.336L12.1093 13.664C12.3833 14.0749 12.7544 14.4119 13.1898 14.6449C13.6252 14.878 14.1115 15 14.6053 15H17.3947C17.8885 15 18.3748 14.878 18.8102 14.6449C19.2456 14.4119 19.6167 14.0749 19.8907 13.664L20.1093 13.336C20.3833 12.9251 20.7544 12.5881 21.1898 12.3551C21.6252 12.122 22.1115 12 22.6053 12H28.7867M3.21333 12C3.07262 12.3529 3.00022 12.7294 3 13.1093V16C3 16.7956 3.31607 17.5587 3.87868 18.1213C4.44129 18.6839 5.20435 19 6 19H26C26.7957 19 27.5587 18.6839 28.1213 18.1213C28.6839 17.5587 29 16.7956 29 16V13.1093C29 12.7267 28.9267 12.3493 28.7867 12M3.21333 12C3.33554 11.693 3.50764 11.4083 3.72267 11.1573L8.10267 6.048C8.38422 5.71941 8.73353 5.45562 9.12662 5.27472C9.51971 5.09383 9.94728 5.00011 10.38 5H21.62C22.496 5 23.328 5.38267 23.8987 6.048L28.2773 11.1573C28.4947 11.4107 28.6653 11.696 28.7867 12M6 27H26C26.7957 27 27.5587 26.6839 28.1213 26.1213C28.6839 25.5587 29 24.7957 29 24V20.5C29 19.672 28.328 19 27.5 19H4.5C3.672 19 3 19.672 3 20.5V24C3 24.7957 3.31607 25.5587 3.87868 26.1213C4.44129 26.6839 5.20435 27 6 27Z" stroke="#0D57AA" stroke-width="2" stroke-linecap="round" stroke-linejoin="round"/>
    <path d="M57 26L47 16L57 6M49 26L39 16L49 6" stroke="#0D57AA" stroke-width="2" stroke-linecap="round" stroke-linejoin="round"/>
    <rect x="68" y="5" width="24" height="14" fill="#B3E5FF"/>
    <rect x="66" y="22" width="28" height="5" fill="#B3E5FF"/>
    <path d="M67.9269 27.5531H91.9539C93.6783 27.5531 95.0809 26.1503 95.0809 24.4261C95.0809 22.702 93.6783 21.2992 91.9539 21.2992H67.9269C66.2026 21.2992 64.8 22.702 64.8 24.4261C64.8 26.1503 66.2026 27.5531 67.9269 27.5531ZM66.398 24.4261C66.398 23.5834 67.084 22.8976 67.9269 22.8976H91.9539C92.7969 22.8976 93.4829 23.5834 93.4829 24.4261C93.4829 25.2688 92.7969 25.9547 91.9539 25.9547H67.9269C67.084 25.9547 66.398 25.2688 66.398 24.4261ZM70.9769 20.7034H88.9038C91.2017 20.7034 93.0708 18.8341 93.0708 16.5364V7.96701C93.0708 5.66926 91.2017 3.8 88.9038 3.8H70.9769C68.6791 3.8 66.8101 5.66927 66.8101 7.96701V16.5364C66.8101 18.8341 68.6791 20.7034 70.9769 20.7034ZM68.4081 7.96701C68.4081 6.55068 69.5605 5.39838 70.9769 5.39838H88.9038C90.3201 5.39838 91.4728 6.5507 91.4728 7.96701V16.5364C91.4728 17.9527 90.3201 19.105 88.9038 19.105H70.9769C69.5605 19.105 68.4081 17.9527 68.4081 16.5364V7.96701Z" fill="#0477CC" stroke="#0477CC" stroke-width="0.4"/>
</svg>
