<svg width="96" height="32" viewBox="0 0 96 32" fill="none" xmlns="http://www.w3.org/2000/svg">
<rect x="4" y="5" width="24" height="14" fill="#B3E5FF"/>
<rect x="2" y="22" width="28" height="5" fill="#B3E5FF"/>
<path d="M3.92695 27.5531H27.9539C29.6783 27.5531 31.0809 26.1502 31.0809 24.4261C31.0809 22.702 29.6783 21.2992 27.9539 21.2992H3.92695C2.2026 21.2992 0.8 22.702 0.8 24.4261C0.8 26.1503 2.2026 27.5531 3.92695 27.5531ZM2.39798 24.4261C2.39798 23.5834 3.08397 22.8976 3.92695 22.8976H27.9539C28.7969 22.8976 29.4829 23.5834 29.4829 24.4261C29.4829 25.2688 28.7969 25.9547 27.9539 25.9547H3.92695C3.08397 25.9547 2.39798 25.2688 2.39798 24.4261ZM6.9769 20.7034H24.9038C27.2017 20.7034 29.0708 18.8341 29.0708 16.5364V7.96701C29.0708 5.66926 27.2017 3.8 24.9038 3.8H6.9769C4.67914 3.8 2.8101 5.66927 2.8101 7.96701V16.5364C2.8101 18.8341 4.67914 20.7034 6.9769 20.7034ZM4.40807 7.96701C4.40807 6.55068 5.56054 5.39838 6.9769 5.39838H24.9038C26.3201 5.39838 27.4728 6.5507 27.4728 7.96701V16.5364C27.4728 17.9527 26.3201 19.105 24.9038 19.105H6.9769C5.56054 19.105 4.40807 17.9527 4.40807 16.5364V7.96701Z" fill="#0477CC" stroke="#0477CC" stroke-width="0.4"/>
<path d="M39 6L49 16L39 26M47 6L57 16L47 26" stroke="#0D57AA" stroke-width="2" stroke-linecap="round" stroke-linejoin="round"/>
<path d="M74.5 19L76.1187 21.5893C76.3883 22.0209 76.7632 22.3769 77.2083 22.6236C77.6533 22.8704 78.1538 22.9999 78.6627 23H81.3373C82.372 23 83.3333 22.4667 83.8813 21.5893L85.5 19M67.2133 12H73.3947C73.8885 12 74.3748 12.122 74.8102 12.3551C75.2456 12.5881 75.6167 12.9251 75.8907 13.336L76.1093 13.664C76.3833 14.0749 76.7544 14.4119 77.1898 14.6449C77.6252 14.878 78.1115 15 78.6053 15H81.3947C81.8885 15 82.3748 14.878 82.8102 14.6449C83.2456 14.4119 83.6167 14.0749 83.8907 13.664L84.1093 13.336C84.3833 12.9251 84.7544 12.5881 85.1898 12.3551C85.6252 12.122 86.1115 12 86.6053 12H92.7867M67.2133 12C67.0726 12.3529 67.0002 12.7294 67 13.1093V16C67 16.7956 67.3161 17.5587 67.8787 18.1213C68.4413 18.6839 69.2044 19 70 19H90C90.7957 19 91.5587 18.6839 92.1213 18.1213C92.6839 17.5587 93 16.7956 93 16V13.1093C93 12.7267 92.9267 12.3493 92.7867 12M67.2133 12C67.3355 11.693 67.5076 11.4083 67.7227 11.1573L72.1027 6.048C72.3842 5.71941 72.7335 5.45562 73.1266 5.27472C73.5197 5.09383 73.9473 5.00011 74.38 5H85.62C86.496 5 87.328 5.38267 87.8987 6.048L92.2773 11.1573C92.4947 11.4107 92.6653 11.696 92.7867 12M70 27H90C90.7957 27 91.5587 26.6839 92.1213 26.1213C92.6839 25.5587 93 24.7957 93 24V20.5C93 19.672 92.328 19 91.5 19H68.5C67.672 19 67 19.672 67 20.5V24C67 24.7957 67.3161 25.5587 67.8787 26.1213C68.4413 26.6839 69.2044 27 70 27Z" fill="#B3E5FF"/>
<path d="M74.5 19L76.1187 21.5893C76.3883 22.0209 76.7632 22.3769 77.2082 22.6236C77.6533 22.8704 78.1538 22.9999 78.6627 23H81.3373C82.372 23 83.3333 22.4667 83.8813 21.5893L85.5 19M67.2133 12H73.3947C73.8885 12 74.3748 12.122 74.8102 12.3551C75.2456 12.5881 75.6167 12.9251 75.8907 13.336L76.1093 13.664C76.3833 14.0749 76.7544 14.4119 77.1898 14.6449C77.6252 14.878 78.1115 15 78.6053 15H81.3947C81.8885 15 82.3748 14.878 82.8102 14.6449C83.2456 14.4119 83.6167 14.0749 83.8907 13.664L84.1093 13.336C84.3833 12.9251 84.7544 12.5881 85.1898 12.3551C85.6252 12.122 86.1115 12 86.6053 12H92.7867M67.2133 12C67.0726 12.3529 67.0002 12.7294 67 13.1093V16C67 16.7956 67.3161 17.5587 67.8787 18.1213C68.4413 18.6839 69.2044 19 70 19H90C90.7957 19 91.5587 18.6839 92.1213 18.1213C92.6839 17.5587 93 16.7956 93 16V13.1093C93 12.7267 92.9267 12.3493 92.7867 12M67.2133 12C67.3355 11.693 67.5076 11.4083 67.7227 11.1573L72.1027 6.048C72.3842 5.71941 72.7335 5.45562 73.1266 5.27472C73.5197 5.09383 73.9473 5.00011 74.38 5H85.62C86.496 5 87.328 5.38267 87.8987 6.048L92.2773 11.1573C92.4947 11.4107 92.6653 11.696 92.7867 12M70 27H90C90.7957 27 91.5587 26.6839 92.1213 26.1213C92.6839 25.5587 93 24.7957 93 24V20.5C93 19.672 92.328 19 91.5 19H68.5C67.672 19 67 19.672 67 20.5V24C67 24.7957 67.3161 25.5587 67.8787 26.1213C68.4413 26.6839 69.2044 27 70 27Z" stroke="#0D57AA" stroke-width="2" stroke-linecap="round" stroke-linejoin="round"/>
</svg>
