<svg width="88" height="32" viewBox="0 0 88 32" fill="none" xmlns="http://www.w3.org/2000/svg">
    <rect x="4" y="5" width="24" height="14" fill="#B3E5FF"/>
    <rect x="2" y="22" width="28" height="5" fill="#B3E5FF"/>
    <path d="M3.92695 27.5531H27.9539C29.6783 27.5531 31.0809 26.1503 31.0809 24.4261C31.0809 22.702 29.6783 21.2992 27.9539 21.2992H3.92695C2.2026 21.2992 0.8 22.702 0.8 24.4261C0.8 26.1503 2.2026 27.5531 3.92695 27.5531ZM2.39798 24.4261C2.39798 23.5834 3.08397 22.8976 3.92695 22.8976H27.9539C28.7969 22.8976 29.4829 23.5834 29.4829 24.4261C29.4829 25.2688 28.7969 25.9547 27.9539 25.9547H3.92695C3.08397 25.9547 2.39798 25.2688 2.39798 24.4261ZM6.9769 20.7034H24.9038C27.2017 20.7034 29.0708 18.8341 29.0708 16.5364V7.96701C29.0708 5.66926 27.2017 3.8 24.9038 3.8H6.9769C4.67914 3.8 2.8101 5.66927 2.8101 7.96701V16.5364C2.8101 18.8341 4.67914 20.7034 6.9769 20.7034ZM4.40807 7.96701C4.40807 6.55068 5.56054 5.39838 6.9769 5.39838H24.9038C26.3201 5.39838 27.4728 6.5507 27.4728 7.96701V16.5364C27.4728 17.9527 26.3201 19.105 24.9038 19.105H6.9769C5.56054 19.105 4.40807 17.9527 4.40807 16.5364V7.96701Z" fill="#0477CC" stroke="#0477CC" stroke-width="0.4"/>
    <path d="M39.5 25L35 20.5M35 20.5L39.5 16M35 20.5H48.5M48.5 7L53 11.5M53 11.5L48.5 16M53 11.5H39.5" stroke="#0D57AA" stroke-width="1.5" stroke-linecap="round" stroke-linejoin="round"/>
    <rect x="60" y="5" width="24" height="14" fill="#B3E5FF"/>
    <rect x="58" y="22" width="28" height="5" fill="#B3E5FF"/>
    <path d="M59.9269 27.5531H83.9539C85.6783 27.5531 87.0809 26.1503 87.0809 24.4261C87.0809 22.702 85.6783 21.2992 83.9539 21.2992H59.9269C58.2026 21.2992 56.8 22.702 56.8 24.4261C56.8 26.1503 58.2026 27.5531 59.9269 27.5531ZM58.398 24.4261C58.398 23.5834 59.084 22.8976 59.9269 22.8976H83.9539C84.7969 22.8976 85.4829 23.5834 85.4829 24.4261C85.4829 25.2688 84.7969 25.9547 83.9539 25.9547H59.9269C59.084 25.9547 58.398 25.2688 58.398 24.4261ZM62.9769 20.7034H80.9038C83.2017 20.7034 85.0708 18.8341 85.0708 16.5364V7.96701C85.0708 5.66926 83.2017 3.8 80.9038 3.8H62.9769C60.6791 3.8 58.8101 5.66927 58.8101 7.96701V16.5364C58.8101 18.8341 60.6791 20.7034 62.9769 20.7034ZM60.4081 7.96701C60.4081 6.55068 61.5605 5.39838 62.9769 5.39838H80.9038C82.3201 5.39838 83.4728 6.5507 83.4728 7.96701V16.5364C83.4728 17.9527 82.3201 19.105 80.9038 19.105H62.9769C61.5605 19.105 60.4081 17.9527 60.4081 16.5364V7.96701Z" fill="#0477CC" stroke="#0477CC" stroke-width="0.4"/>
</svg>
