<svg width="40" height="40" viewBox="0 0 40 40" fill="none" xmlns="http://www.w3.org/2000/svg">
<circle cx="20" cy="20" r="20" fill="#0488E1"/>
<path fill-rule="evenodd" clip-rule="evenodd" d="M14.1008 17.8838C14.3846 16.8239 14.9423 15.8574 15.718 15.0814C16.4937 14.3054 17.46 13.7473 18.5198 13.4632C19.5796 13.1791 20.6955 13.1789 21.7554 13.4628C22.8152 13.7467 23.7816 14.3046 24.5575 15.0804L26.1433 16.6663H23.4908C23.3251 16.6663 23.1661 16.7321 23.0489 16.8493C22.9317 16.9665 22.8658 17.1255 22.8658 17.2913C22.8658 17.457 22.9317 17.616 23.0489 17.7332C23.1661 17.8504 23.3251 17.9163 23.4908 17.9163H27.6508C27.8166 17.9163 27.9756 17.8504 28.0928 17.7332C28.21 17.616 28.2758 17.457 28.2758 17.2913V13.1313C28.2758 12.9655 28.21 12.8065 28.0928 12.6893C27.9756 12.5721 27.8166 12.5063 27.6508 12.5063C27.4851 12.5063 27.3261 12.5721 27.2089 12.6893C27.0917 12.8065 27.0258 12.9655 27.0258 13.1313V15.7813L25.4425 14.1979C24.5116 13.2666 23.352 12.5968 22.0802 12.2558C20.8084 11.9149 19.4692 11.9147 18.1973 12.2554C16.9254 12.5961 15.7656 13.2657 14.8346 14.1968C13.9035 15.1279 13.234 16.2877 12.8933 17.5596C12.8721 17.6389 12.8667 17.7217 12.8775 17.8031C12.8882 17.8845 12.9149 17.963 12.956 18.0342C12.9971 18.1053 13.0518 18.1676 13.1169 18.2176C13.1821 18.2675 13.2565 18.3042 13.3358 18.3254C13.4152 18.3467 13.4979 18.352 13.5793 18.3413C13.6608 18.3306 13.7393 18.3039 13.8104 18.2628C13.8815 18.2217 13.9438 18.167 13.9938 18.1018C14.0438 18.0366 14.0796 17.9631 14.1008 17.8838ZM26.9408 20.6771C26.8616 20.6558 26.7788 20.6503 26.6974 20.661C26.616 20.6717 26.5375 20.6983 26.4664 20.7393C26.3953 20.7803 26.333 20.8349 26.283 20.9C26.233 20.9651 26.1963 21.0395 26.175 21.1188C25.8913 22.1786 25.3335 23.1452 24.5578 23.9211C23.7821 24.6971 22.8158 25.2552 21.756 25.5393C20.6962 25.8235 19.5803 25.8236 18.5205 25.5397C17.4606 25.2558 16.4942 24.6979 15.7183 23.9221L14.1333 22.3363H16.7858C16.9516 22.3363 17.1106 22.2704 17.2278 22.1532C17.345 22.036 17.4108 21.877 17.4108 21.7113C17.4108 21.5455 17.345 21.3865 17.2278 21.2693C17.1106 21.1521 16.9516 21.0863 16.7858 21.0863H12.625C12.4592 21.0863 12.3003 21.1521 12.1831 21.2693C12.0658 21.3865 12 21.5455 12 21.7113V25.8713C12 26.037 12.0658 26.196 12.1831 26.3132C12.3003 26.4304 12.4592 26.4963 12.625 26.4963C12.7908 26.4963 12.9497 26.4304 13.0669 26.3132C13.1842 26.196 13.25 26.037 13.25 25.8713V23.2213L14.8333 24.8046C15.7642 25.7359 16.9239 26.4057 18.1958 26.7466C19.4677 27.0875 20.8069 27.0876 22.0788 26.7468C23.3507 26.406 24.5105 25.7363 25.4415 24.8051C26.3725 23.874 27.0419 22.7141 27.3825 21.4421C27.4253 21.2821 27.4028 21.1116 27.32 20.9682C27.2372 20.8248 27.1008 20.7201 26.9408 20.6771Z" fill="white" stroke="white"/>
</svg>
