<svg width="40" height="40" viewBox="0 0 40 40" fill="none" xmlns="http://www.w3.org/2000/svg">
<rect x="16.1113" y="21.5882" width="22.811" height="4.47763" rx="2.23881" transform="rotate(-30.5312 16.1113 21.5882)" fill="#B3E5FF"/>
<rect width="22.811" height="4.47763" rx="2.23881" transform="matrix(-0.861353 -0.508008 -0.508008 0.861353 24.0342 21.5882)" fill="#B3E5FF"/>
<rect width="22.811" height="4.47763" rx="2.23881" transform="matrix(-4.37114e-08 -1 -1 4.37114e-08 22.5889 38.811)" fill="#B3E5FF"/>
<path d="M6.5094 11.9055C5.07087 11.0424 5.07087 8.95758 6.5094 8.09446L18.8569 0.685993C19.5606 0.26375 20.4398 0.263751 21.1435 0.685994L33.491 8.09446C34.9295 8.95758 34.9295 11.0424 33.491 11.9055L21.1435 19.314C20.4398 19.7363 19.5606 19.7363 18.8569 19.314L6.5094 11.9055Z" fill="#0D57AA"/>
<path d="M21.1113 23.5219C21.1113 22.7191 21.5444 21.9786 22.2441 21.585L35.5774 14.085C37.0588 13.2518 38.8891 14.3223 38.8891 16.0219V28.7003C38.8891 29.5032 38.4561 30.2436 37.7564 30.6372L24.423 38.1372C22.9417 38.9704 21.1113 37.9 21.1113 36.2003V23.5219Z" fill="#0477CC"/>
<path d="M1.11133 15.1206C1.11133 13.3751 3.03122 12.311 4.51133 13.2361L17.8447 21.5694C18.4944 21.9755 18.8891 22.6877 18.8891 23.4539V36.2003C18.8891 37.9 17.0588 38.9704 15.5774 38.1372L2.24408 30.6372C1.54436 30.2436 1.11133 29.5032 1.11133 28.7003V15.1206Z" fill="#009CF6"/>
</svg>
