<svg width="40" height="40" viewBox="0 0 40 40" fill="none" xmlns="http://www.w3.org/2000/svg"><path d="M5.00063 12.4991L19.9229 2.81215L35.0032 12.5014L35.0032 27.5014L19.9229 35.8347L5.00242 27.5022L5.00063 12.4991Z" fill="#EEEEEE"></path><line x1="19.9999" y1="34.0259" x2="19.9999" y2="24.3076" stroke="#FFCB05" stroke-width="1.66667"></line><line x1="32.0955" y1="14.0481" x2="23.7622" y2="19.0481" stroke="#FFCB05" stroke-width="1.66667"></line><line y1="-0.833333" x2="9.71825" y2="-0.833333" transform="matrix(0.857493 0.514496 0.514496 -0.857493 8.33325 13.3335)" stroke="#FFCB05" stroke-width="1.66667"></line><line y1="-0.833333" x2="9.71825" y2="-0.833333" transform="matrix(-0.857493 -0.514496 -0.514496 0.857493 31.6667 11.6665)" stroke="#FFCB05" stroke-width="1.66667"></line><line x1="22.9045" y1="34.6189" x2="31.2378" y2="29.6189" stroke="#FFCB05" stroke-width="1.66667"></line><line y1="-0.833333" x2="9.71825" y2="-0.833333" transform="matrix(-0.857493 -0.514496 -0.514496 0.857493 16.6667 35.333)" stroke="#FFCB05" stroke-width="1.66667"></line><line x1="7.90451" y1="10.9519" x2="16.2378" y2="5.95193" stroke="#FFCB05" stroke-width="1.66667"></line><line y1="-0.833333" x2="9.71825" y2="-0.833333" transform="matrix(-4.37114e-08 -1 -1 4.37114e-08 4.16675 24.7183)" stroke="#FFCB05" stroke-width="1.66667"></line><line y1="-0.833333" x2="9.71825" y2="-0.833333" transform="matrix(-4.37114e-08 -1 -1 4.37114e-08 34.1667 24.7183)" stroke="#FFCB05" stroke-width="1.66667"></line><path d="M35 12.5L31.25 10.3117M35 12.5V16.25M35 12.5L31.25 14.6883M5 12.5L8.75 10.3117M5 12.5L8.75 14.6883M5 12.5V16.25M20 21.25L23.75 19.0617M20 21.25L16.25 19.0617M20 21.25V25M20 36.25L23.75 34.0617M20 36.25V32.5M20 36.25L16.25 34.0617M16.25 5.93667L20 3.75L23.75 5.93833M35 23.75V27.5L31.25 29.6883M8.75 29.6883L5 27.5V23.75" stroke="#00274C" stroke-width="2.5" stroke-linecap="round" stroke-linejoin="round"></path></svg>
