<svg width="40" height="40" viewBox="0 0 40 40" fill="none" xmlns="http://www.w3.org/2000/svg">
<path d="M11.9804 16.223C11.0449 17.3272 10.3483 18.6132 9.93445 20C11.2264 24.338 15.2444 27.5 20.0004 27.5C20.9934 27.5 21.9534 27.362 22.8634 27.105M14.2284 14.228C15.9411 13.0978 17.9485 12.4968 20.0004 12.5C24.7564 12.5 28.7734 15.662 30.0654 19.998C29.3573 22.3673 27.8374 24.4115 25.7724 25.772M14.2284 14.228L11.0004 11M14.2284 14.228L17.8784 17.878M25.7724 25.772L29.0004 29M25.7724 25.772L22.1224 22.122C22.401 21.8434 22.622 21.5127 22.7728 21.1486C22.9236 20.7846 23.0012 20.3945 23.0012 20.0005C23.0012 19.6065 22.9236 19.2164 22.7728 18.8524C22.622 18.4883 22.401 18.1576 22.1224 17.879C21.8438 17.6004 21.5131 17.3794 21.1491 17.2286C20.7851 17.0778 20.3949 17.0002 20.0009 17.0002C19.6069 17.0002 19.2168 17.0778 18.8528 17.2286C18.4888 17.3794 18.158 17.6004 17.8794 17.879M22.1214 22.121L17.8804 17.88" stroke="#0D57AA" stroke-width="1.5" stroke-linecap="round" stroke-linejoin="round"/>
</svg>
