<svg width="40" height="24" viewBox="0 0 40 24" fill="none" xmlns="http://www.w3.org/2000/svg">
<path d="M11.9804 8.223C11.0449 9.32718 10.3483 10.6132 9.93445 12C11.2264 16.338 15.2444 19.5 20.0004 19.5C20.9934 19.5 21.9534 19.362 22.8634 19.105M14.2284 6.228C15.9411 5.09781 17.9485 4.49682 20.0004 4.5C24.7564 4.5 28.7734 7.662 30.0654 11.998C29.3573 14.3673 27.8374 16.4115 25.7724 17.772M14.2284 6.228L11.0004 3M14.2284 6.228L17.8784 9.878M25.7724 17.772L29.0004 21M25.7724 17.772L22.1224 14.122C22.401 13.8434 22.622 13.5127 22.7728 13.1486C22.9236 12.7846 23.0012 12.3945 23.0012 12.0005C23.0012 11.6065 22.9236 11.2164 22.7728 10.8524C22.622 10.4883 22.401 10.1576 22.1224 9.879C21.8438 9.6004 21.5131 9.3794 21.1491 9.22863C20.7851 9.07785 20.3949 9.00025 20.0009 9.00025C19.6069 9.00025 19.2168 9.07785 18.8528 9.22863C18.4888 9.3794 18.158 9.6004 17.8794 9.879M22.1214 14.121L17.8804 9.88" stroke="#0D57AA" stroke-width="1.5" stroke-linecap="round" stroke-linejoin="round"/>
</svg>
