<svg width="40" height="40" viewBox="0 0 40 40" fill="none" xmlns="http://www.w3.org/2000/svg">
<rect width="40" height="40" fill="#E1F5FF"/>
<path d="M11.9805 16.223C11.045 17.3272 10.3483 18.6132 9.93451 20C11.2265 24.338 15.2445 27.5 20.0005 27.5C20.9935 27.5 21.9535 27.362 22.8635 27.105M14.2285 14.228C15.9411 13.0978 17.9486 12.4968 20.0005 12.5C24.7565 12.5 28.7735 15.662 30.0655 19.998C29.3574 22.3673 27.8375 24.4115 25.7725 25.772M14.2285 14.228L11.0005 11M14.2285 14.228L17.8785 17.878M25.7725 25.772L29.0005 29M25.7725 25.772L22.1225 22.122C22.4011 21.8434 22.6221 21.5127 22.7729 21.1486C22.9237 20.7846 23.0013 20.3945 23.0013 20.0005C23.0013 19.6065 22.9237 19.2164 22.7729 18.8524C22.6221 18.4883 22.4011 18.1576 22.1225 17.879C21.8439 17.6004 21.5132 17.3794 21.1492 17.2286C20.7851 17.0778 20.395 17.0002 20.001 17.0002C19.607 17.0002 19.2169 17.0778 18.8529 17.2286C18.4889 17.3794 18.1581 17.6004 17.8795 17.879M22.1215 22.121L17.8805 17.88" stroke="#0D57AA" stroke-width="1.5" stroke-linecap="round" stroke-linejoin="round"/>
</svg>
