<svg width="40" height="40" viewBox="0 0 40 40" fill="none" xmlns="http://www.w3.org/2000/svg">
<rect width="40" height="40" fill="#E1F5FF"/>
<path d="M19.4205 23.1676L25.2505 28.9976C25.7505 29.4816 26.4207 29.7497 27.1166 29.744C27.8124 29.7384 28.4782 29.4594 28.9703 28.9674C29.4624 28.4753 29.7413 27.8095 29.747 27.1136C29.7526 26.4178 29.4845 25.7476 29.0005 25.2476L23.1235 19.3706M19.4205 23.1676L21.9165 20.1376C22.2335 19.7536 22.6565 19.5116 23.1245 19.3716C23.6745 19.2076 24.2875 19.1836 24.8675 19.2316C25.6493 19.2987 26.4351 19.1602 27.1469 18.8299C27.8587 18.4995 28.4717 17.9888 28.9251 17.3484C29.3786 16.7079 29.6567 15.9601 29.7318 15.179C29.8069 14.3979 29.6765 13.6107 29.3535 12.8956L26.0775 16.1726C25.5294 16.0458 25.0279 15.7677 24.6301 15.3699C24.2323 14.9721 23.9542 14.4707 23.8275 13.9226L27.1035 10.6466C26.3884 10.3235 25.6012 10.1931 24.8201 10.2682C24.039 10.3434 23.2911 10.6215 22.6507 11.0749C22.0102 11.5283 21.4995 12.1414 21.1692 12.8532C20.8388 13.5649 20.7004 14.3507 20.7675 15.1326C20.8585 16.2086 20.6965 17.3966 19.8635 18.0826L19.7615 18.1676M19.4205 23.1676L14.7655 28.8206C14.5399 29.0956 14.2592 29.3203 13.9415 29.4803C13.6238 29.6402 13.2761 29.7319 12.9208 29.7494C12.5655 29.7669 12.2105 29.7098 11.8787 29.5818C11.5468 29.4538 11.2454 29.2577 10.9939 29.0062C10.7423 28.7547 10.5463 28.4533 10.4183 28.1214C10.2902 27.7895 10.2332 27.4345 10.2506 27.0792C10.2681 26.7239 10.3598 26.3763 10.5198 26.0586C10.6798 25.7409 10.9045 25.4602 11.1795 25.2346L18.0165 19.6046L13.9095 15.4976H12.5005L10.2505 11.7476L11.7505 10.2476L15.5005 12.4976V13.9066L19.7605 18.1666L18.0155 19.6036M26.3755 26.3726L23.7505 23.7476M12.8675 27.1226H12.8755V27.1306H12.8675V27.1226Z" stroke="#0D57AA" stroke-width="1.5" stroke-linecap="round" stroke-linejoin="round"/>
</svg>
