<svg width="40" height="40" viewBox="0 0 40 40" fill="none" xmlns="http://www.w3.org/2000/svg">
<path d="M29.752 14.7486C29.752 15.3719 29.6226 15.9885 29.3718 16.5592C29.1211 17.1299 28.7545 17.6422 28.2953 18.0638C27.8361 18.4854 27.2944 18.8069 26.7044 19.0081C26.1144 19.2093 25.489 19.2857 24.868 19.2326C23.792 19.1416 22.604 19.3036 21.918 20.1366L14.766 28.8206C14.5404 29.0956 14.2597 29.3203 13.942 29.4803C13.6243 29.6402 13.2766 29.7319 12.9213 29.7494C12.566 29.7669 12.211 29.7098 11.8791 29.5818C11.5473 29.4538 11.2459 29.2577 10.9943 29.0062C10.7428 28.7547 10.5467 28.4533 10.4187 28.1214C10.2907 27.7895 10.2336 27.4345 10.2511 27.0792C10.2686 26.7239 10.3603 26.3763 10.5203 26.0586C10.6802 25.7409 10.905 25.4602 11.18 25.2346L19.864 18.0826C20.697 17.3966 20.859 16.2086 20.768 15.1326C20.7008 14.3507 20.8393 13.5649 21.1697 12.8532C21.5 12.1414 22.0107 11.5283 22.6512 11.0749C23.2916 10.6215 24.0395 10.3434 24.8206 10.2682C25.6017 10.1931 26.3888 10.3235 27.104 10.6466L23.828 13.9226C23.9547 14.4706 24.2328 14.9721 24.6306 15.3699C25.0284 15.7677 25.5299 16.0458 26.078 16.1726L29.354 12.8966C29.61 13.4616 29.752 14.0886 29.752 14.7486Z" stroke="#0D57AA" stroke-width="1.5" stroke-linecap="round" stroke-linejoin="round"/>
<path d="M13.0144 26.978H13.0224V26.986H13.0144V26.978Z" stroke="#0D57AA" stroke-width="1.5" stroke-linecap="round" stroke-linejoin="round"/>
</svg>
