<svg xmlns="http://www.w3.org/2000/svg" width="20" height="20" fill="none"><path stroke="#212121" stroke-linecap="round" stroke-linejoin="round" stroke-width="1.5" d="M8.61667 13.2c-.57334-.05-1.155-.075-1.74167-.075H6.25c-.99456 0-1.94839-.3951-2.65165-1.0983C2.89509 11.3234 2.5 10.3696 2.5 9.375c0-.99456.39509-1.94839 1.09835-2.65165S5.25544 5.625 6.25 5.625h.625c.58667 0 1.16833-.025 1.74167-.075m0 7.65c.21083.8017.48666 1.5767.82083 2.3192.20583.4583.05 1.0083-.38583 1.2591l-.5475.3167c-.45917.265-1.05.0975-1.2725-.3842-.52809-1.1424-.93046-2.3389-1.2-3.5683m2.585.0575c-.32752-1.2486-.49277-2.5342-.49167-3.825 0-1.32167.17083-2.60333.49167-3.825m0 7.65c2.56793.2201 5.06853.9376 7.36253 2.1125M8.61667 5.55c2.56793-.22007 5.06853-.93756 7.36253-2.1125m0 11.875c-.0984.3167-.2042.6283-.3167.9375m.3167-.9375c.4533-1.4612.7368-2.9698.845-4.4958m-.845-7.3792c-.0978-.31509-.2033-.62769-.3167-.9375m.3167.9375c.4533 1.4612.7368 2.96975.845 4.49583m0 0c.4125.34417.6758.8625.6758 1.44167s-.2633 1.0975-.6758 1.4417m0-2.88337c.0683.9599.0683 1.92344 0 2.88337"/></svg>