<svg xmlns="http://www.w3.org/2000/svg" width="20" height="20" fill="none"><path fill="#fafafa" d="M14.068 3.622A19.26 19.26 0 0 1 6.875 5H6.25a4.375 4.375 0 0 0-.733 8.69c.276 1.128.66 2.228 1.148 3.283.387.836 1.395 1.1 2.152.663l.547-.316c.733-.423.971-1.327.643-2.057a14.257 14.257 0 0 1-.523-1.339c1.598.215 3.133.625 4.584 1.205.62-1.855.934-3.798.932-5.754 0-2.01-.328-3.946-.932-5.753Zm1.149-.505a19.35 19.35 0 0 1 1.033 6.258 19.35 19.35 0 0 1-1.175 6.66.625.625 0 1 0 1.174.43 20.458 20.458 0 0 0 1.18-5.358 2.493 2.493 0 0 0 .696-1.732c0-.672-.266-1.283-.697-1.732a20.542 20.542 0 0 0-1.179-5.358.624.624 0 1 0-1.174.43c.05.133.097.267.142.402Z"/></svg>