<svg xmlns="http://www.w3.org/2000/svg" width="20" height="20" fill="#fafafa"><path d="M9.558 3.2a.625.625 0 0 1 .884 0l7.241 7.242a.625.625 0 1 0 .884-.884l-7.241-7.241a1.875 1.875 0 0 0-2.652 0L1.433 9.558a.625.625 0 0 0 .884.884L9.558 3.2Z"/><path d="m10 4.527 6.8 6.799c.024.025.05.048.075.071v5.165c0 .863-.7 1.563-1.563 1.563H12.5a.624.624 0 0 1-.625-.625v-3.75a.624.624 0 0 0-.625-.625h-2.5a.625.625 0 0 0-.625.625v3.75a.625.625 0 0 1-.625.625H4.687a1.563 1.563 0 0 1-1.562-1.563v-5.165l.076-.071L10 4.525v.002Z"/></svg>