<svg width="20" height="20" viewBox="0 0 20 20" fill="none" xmlns="http://www.w3.org/2000/svg"><path d="M9.375 3.77751C8.06925 2.94115 6.55063 2.49771 5 2.50001C4.07749 2.49907 3.16158 2.65548 2.29167 2.96251C2.16983 3.00559 2.06433 3.08537 1.98972 3.19088C1.9151 3.2964 1.87502 3.42244 1.875 3.55168V15.4267C1.87501 15.5267 1.89901 15.6252 1.94498 15.714C1.99096 15.8027 2.05755 15.8792 2.13919 15.9369C2.22083 15.9946 2.31512 16.0319 2.41416 16.0457C2.51319 16.0594 2.61407 16.0492 2.70833 16.0158C3.44444 15.7562 4.21945 15.624 5 15.625C6.6625 15.625 8.18583 16.2142 9.375 17.1967V3.77751ZM10.625 17.1967C11.8553 16.1785 13.403 15.6225 15 15.625C15.805 15.625 16.575 15.7633 17.2917 16.0167C17.386 16.05 17.487 16.0602 17.586 16.0465C17.6851 16.0327 17.7795 15.9953 17.8611 15.9375C17.9428 15.8797 18.0094 15.8031 18.0553 15.7142C18.1012 15.6253 18.1251 15.5267 18.125 15.4267V3.55168C18.125 3.42244 18.0849 3.2964 18.0103 3.19088C17.9357 3.08537 17.8302 3.00559 17.7083 2.96251C16.8384 2.65548 15.9225 2.49907 15 2.50001C13.4494 2.49771 11.9307 2.94115 10.625 3.77751V17.1967Z" fill="#fafafa"></path></svg>
