<svg width="796" height="160" viewBox="0 0 796 160" fill="none" xmlns="http://www.w3.org/2000/svg">
<path d="M106.924 129.236L63.1651 69.3852V112.93H80.4868V155.94H0V112.93H16.3326V46.1026H0V3.03906H63.2988L106.924 63.2906L150.522 3.03906H213.847V46.0224H197.435V112.85H213.847V155.86H133.334V112.93H150.682V69.3852L106.924 129.236Z" fill="#FFCB05"/>
<line x1="260.626" x2="260.626" y2="155.039" stroke="#00274C" stroke-width="2.67309"/>
<path d="M311.415 25.5493V70.0391H307.038V25.5493H295.431V21.3752H323.021V25.5493H311.415ZM330.68 70.0391V21.3752H358.066V25.5493H335.058V43.6371H353.689V47.8111H335.058V65.865H358.066V70.0391H330.68ZM393.79 58.7724C393.79 60.4239 393.474 61.9737 392.84 63.4216C392.229 64.8695 391.381 66.1365 390.295 67.2224C389.209 68.3083 387.942 69.168 386.494 69.8015C385.046 70.4124 383.496 70.7178 381.845 70.7178H378.384C376.732 70.7178 375.171 70.4124 373.7 69.8015C372.252 69.168 370.986 68.3083 369.9 67.2224C368.814 66.1365 367.954 64.8695 367.32 63.4216C366.71 61.9737 366.404 60.4239 366.404 58.7724V32.6419C366.404 30.9903 366.71 29.4406 367.32 27.9927C367.954 26.5448 368.814 25.2778 369.9 24.1919C370.986 23.1059 372.252 22.2575 373.7 21.6467C375.171 21.0132 376.732 20.6965 378.384 20.6965H381.845C383.496 20.6965 385.046 21.0132 386.494 21.6467C387.942 22.2575 389.209 23.1059 390.295 24.1919C391.381 25.2778 392.229 26.5448 392.84 27.9927C393.474 29.4406 393.79 30.9903 393.79 32.6419V34.6101L389.413 35.2889V32.6419C389.413 31.5559 389.209 30.5492 388.802 29.6216C388.395 28.6714 387.84 27.8456 387.139 27.1443C386.438 26.4429 385.612 25.8887 384.662 25.4814C383.734 25.0742 382.727 24.8706 381.641 24.8706H378.587C377.501 24.8706 376.483 25.0742 375.533 25.4814C374.605 25.8887 373.78 26.4429 373.056 27.1443C372.354 27.8456 371.8 28.6714 371.393 29.6216C370.986 30.5492 370.782 31.5559 370.782 32.6419V58.7724C370.782 59.8583 370.986 60.8764 371.393 61.8266C371.8 62.7542 372.354 63.58 373.056 64.3039C373.78 65.0053 374.605 65.5595 375.533 65.9668C376.483 66.374 377.501 66.5776 378.587 66.5776H381.641C382.727 66.5776 383.734 66.374 384.662 65.9668C385.612 65.5595 386.438 65.0053 387.139 64.3039C387.84 63.58 388.395 62.7542 388.802 61.8266C389.209 60.8764 389.413 59.8583 389.413 58.7724V56.1254L393.79 56.8381V58.7724ZM427.241 70.0391V47.8111H408.61V70.0391H404.232V21.3752H408.61V43.6371H427.241V21.3752H431.618V70.0391H427.241ZM486.811 58.7724C486.811 60.4239 486.494 61.9737 485.861 63.4216C485.25 64.8695 484.401 66.1365 483.315 67.2224C482.23 68.3083 480.963 69.168 479.515 69.8015C478.067 70.4124 476.517 70.7178 474.865 70.7178H471.404C469.752 70.7178 468.191 70.4124 466.721 69.8015C465.273 69.168 464.006 68.3083 462.92 67.2224C461.834 66.1365 460.974 64.8695 460.341 63.4216C459.73 61.9737 459.425 60.4239 459.425 58.7724V32.6419C459.425 30.9903 459.73 29.4406 460.341 27.9927C460.974 26.5448 461.834 25.2778 462.92 24.1919C464.006 23.1059 465.273 22.2575 466.721 21.6467C468.191 21.0132 469.752 20.6965 471.404 20.6965H474.865C476.517 20.6965 478.067 21.0132 479.515 21.6467C480.963 22.2575 482.23 23.1059 483.315 24.1919C484.401 25.2778 485.25 26.5448 485.861 27.9927C486.494 29.4406 486.811 30.9903 486.811 32.6419V34.6101L482.433 35.2889V32.6419C482.433 31.5559 482.23 30.5492 481.822 29.6216C481.415 28.6714 480.861 27.8456 480.159 27.1443C479.458 26.4429 478.632 25.8887 477.682 25.4814C476.755 25.0742 475.748 24.8706 474.662 24.8706H471.608C470.522 24.8706 469.504 25.0742 468.553 25.4814C467.626 25.8887 466.8 26.4429 466.076 27.1443C465.375 27.8456 464.82 28.6714 464.413 29.6216C464.006 30.5492 463.802 31.5559 463.802 32.6419V58.7724C463.802 59.8583 464.006 60.8764 464.413 61.8266C464.82 62.7542 465.375 63.58 466.076 64.3039C466.8 65.0053 467.626 65.5595 468.553 65.9668C469.504 66.374 470.522 66.5776 471.608 66.5776H474.662C475.748 66.5776 476.755 66.374 477.682 65.9668C478.632 65.5595 479.458 65.0053 480.159 64.3039C480.861 63.58 481.415 62.7542 481.822 61.8266C482.23 60.8764 482.433 59.8583 482.433 58.7724V56.1254L486.811 56.8381V58.7724ZM523.926 58.7724C523.926 60.4239 523.609 61.9737 522.976 63.4216C522.365 64.8695 521.517 66.1365 520.431 67.2224C519.345 68.3083 518.078 69.168 516.63 69.8015C515.182 70.4124 513.632 70.7178 511.981 70.7178H508.519C506.868 70.7178 505.307 70.4124 503.836 69.8015C502.388 69.168 501.121 68.3083 500.035 67.2224C498.949 66.1365 498.09 64.8695 497.456 63.4216C496.845 61.9737 496.54 60.4239 496.54 58.7724V32.6419C496.54 30.9903 496.845 29.4406 497.456 27.9927C498.09 26.5448 498.949 25.2778 500.035 24.1919C501.121 23.1059 502.388 22.2575 503.836 21.6467C505.307 21.0132 506.868 20.6965 508.519 20.6965H511.981C513.632 20.6965 515.182 21.0132 516.63 21.6467C518.078 22.2575 519.345 23.1059 520.431 24.1919C521.517 25.2778 522.365 26.5448 522.976 27.9927C523.609 29.4406 523.926 30.9903 523.926 32.6419V58.7724ZM519.548 32.6419C519.548 31.5559 519.345 30.5492 518.938 29.6216C518.53 28.6714 517.976 27.8456 517.275 27.1443C516.573 26.4429 515.748 25.8887 514.797 25.4814C513.87 25.0742 512.863 24.8706 511.777 24.8706H508.723C507.637 24.8706 506.619 25.0742 505.669 25.4814C504.741 25.8887 503.915 26.4429 503.191 27.1443C502.49 27.8456 501.936 28.6714 501.528 29.6216C501.121 30.5492 500.918 31.5559 500.918 32.6419V58.7724C500.918 59.8583 501.121 60.8764 501.528 61.8266C501.936 62.7542 502.49 63.58 503.191 64.3039C503.915 65.0053 504.741 65.5595 505.669 65.9668C506.619 66.374 507.637 66.5776 508.723 66.5776H511.777C512.863 66.5776 513.87 66.374 514.797 65.9668C515.748 65.5595 516.573 65.0053 517.275 64.3039C517.976 63.58 518.53 62.7542 518.938 61.8266C519.345 60.8764 519.548 59.8583 519.548 58.7724V32.6419ZM560.125 70.0391L539.832 34.6101L539.424 32.5061V70.0391H535.047V21.3752H537.32L557.614 56.8381L558.055 58.9081V21.3752H562.433V70.0391H560.125ZM600.939 58.7724C600.939 60.4239 600.6 61.9737 599.921 63.4216C599.265 64.8695 598.372 66.1365 597.24 67.2224C596.132 68.3083 594.831 69.168 593.338 69.8015C591.867 70.4124 590.306 70.7178 588.655 70.7178H585.159C583.508 70.7178 581.935 70.4124 580.442 69.8015C578.972 69.168 577.671 68.3083 576.54 67.2224C575.431 66.1365 574.537 64.8695 573.859 63.4216C573.203 61.9737 572.874 60.4239 572.874 58.7724V56.8381L577.252 56.1254V58.7724C577.252 59.8583 577.467 60.8764 577.897 61.8266C578.349 62.7542 578.949 63.58 579.696 64.3039C580.442 65.0053 581.302 65.5595 582.275 65.9668C583.27 66.374 584.311 66.5776 585.397 66.5776H588.451C589.537 66.5776 590.566 66.374 591.539 65.9668C592.512 65.5595 593.372 65.0053 594.118 64.3039C594.865 63.58 595.453 62.7542 595.883 61.8266C596.335 60.8764 596.562 59.8583 596.562 58.7724V57.3132C596.562 55.639 596.234 54.2476 595.577 53.1391C594.921 52.0305 594.05 51.0916 592.964 50.3224C591.878 49.5306 590.645 48.8632 589.265 48.3202C587.908 47.7772 586.505 47.2342 585.057 46.6913C583.609 46.1483 582.195 45.5488 580.815 44.8927C579.458 44.2366 578.236 43.4221 577.15 42.4493C576.064 41.4539 575.193 40.2435 574.537 38.8182C573.881 37.3929 573.553 35.6395 573.553 33.5581V32.6419C573.553 30.9903 573.859 29.4406 574.469 27.9927C575.103 26.5448 575.963 25.2778 577.049 24.1919C578.135 23.1059 579.401 22.2575 580.849 21.6467C582.32 21.0132 583.881 20.6965 585.533 20.6965H588.655C590.306 20.6965 591.856 21.0132 593.304 21.6467C594.752 22.2575 596.019 23.1059 597.105 24.1919C598.191 25.2778 599.039 26.5448 599.65 27.9927C600.283 29.4406 600.6 30.9903 600.6 32.6419V33.8975L596.222 34.6101V32.6419C596.222 31.5559 596.019 30.5492 595.611 29.6216C595.204 28.6714 594.65 27.8456 593.949 27.1443C593.247 26.4429 592.421 25.8887 591.471 25.4814C590.544 25.0742 589.537 24.8706 588.451 24.8706H585.736C584.65 24.8706 583.632 25.0742 582.682 25.4814C581.754 25.8887 580.929 26.4429 580.205 27.1443C579.503 27.8456 578.949 28.6714 578.542 29.6216C578.135 30.5492 577.931 31.5559 577.931 32.6419V33.5581C577.931 35.1192 578.259 36.4314 578.915 37.4947C579.571 38.558 580.442 39.4743 581.528 40.2435C582.614 40.9901 583.836 41.6462 585.193 42.2118C586.573 42.7547 587.987 43.3203 589.435 43.9085C590.883 44.4741 592.286 45.1076 593.643 45.8089C595.023 46.4877 596.256 47.336 597.342 48.3541C598.428 49.3496 599.299 50.5713 599.955 52.0192C600.611 53.4671 600.939 55.2318 600.939 57.3132V58.7724ZM637.715 58.7724C637.715 60.4239 637.399 61.9737 636.765 63.4216C636.154 64.8695 635.306 66.1365 634.22 67.2224C633.134 68.3083 631.867 69.168 630.419 69.8015C628.971 70.4124 627.421 70.7178 625.77 70.7178H622.308C620.657 70.7178 619.096 70.4124 617.625 69.8015C616.177 69.168 614.91 68.3083 613.824 67.2224C612.739 66.1365 611.879 64.8695 611.245 63.4216C610.635 61.9737 610.329 60.4239 610.329 58.7724V21.3752H614.707V58.7724C614.707 59.8583 614.91 60.8764 615.318 61.8266C615.725 62.7542 616.279 63.58 616.981 64.3039C617.704 65.0053 618.53 65.5595 619.458 65.9668C620.408 66.374 621.426 66.5776 622.512 66.5776H625.566C626.652 66.5776 627.659 66.374 628.587 65.9668C629.537 65.5595 630.363 65.0053 631.064 64.3039C631.765 63.58 632.319 62.7542 632.727 61.8266C633.134 60.8764 633.338 59.8583 633.338 58.7724V21.3752H637.715V58.7724ZM648.123 70.0391V21.3752H652.501V65.865H671.132V70.0391H648.123ZM688.734 25.5493V70.0391H684.356V25.5493H672.75V21.3752H700.34V25.5493H688.734ZM707.999 70.0391V21.3752H712.376V70.0391H707.999ZM749.288 70.0391L728.995 34.6101L728.587 32.5061V70.0391H724.21V21.3752H726.483L746.777 56.8381L747.218 58.9081V21.3752H751.596V70.0391H749.288ZM790.102 70.0391H788.711L786.166 66.1365C785.103 67.5391 783.813 68.659 782.297 69.4961C780.781 70.3105 779.096 70.7178 777.241 70.7178H774.696C773.044 70.7178 771.483 70.4124 770.012 69.8015C768.565 69.168 767.298 68.3083 766.212 67.2224C765.126 66.1365 764.266 64.8695 763.633 63.4216C763.022 61.9737 762.716 60.4239 762.716 58.7724V32.6419C762.716 30.9903 763.022 29.4406 763.633 27.9927C764.266 26.5448 765.126 25.2778 766.212 24.1919C767.298 23.1059 768.565 22.2575 770.012 21.6467C771.483 21.0132 773.044 20.6965 774.696 20.6965H778.157C779.809 20.6965 781.358 21.0132 782.806 21.6467C784.254 22.2575 785.521 23.1059 786.607 24.1919C787.693 25.2778 788.541 26.5448 789.152 27.9927C789.786 29.4406 790.102 30.9903 790.102 32.6419V34.6101L785.725 35.2889V32.6419C785.725 31.5559 785.521 30.5492 785.114 29.6216C784.707 28.6714 784.152 27.8456 783.451 27.1443C782.75 26.4429 781.924 25.8887 780.974 25.4814C780.046 25.0742 779.039 24.8706 777.953 24.8706H774.899C773.813 24.8706 772.795 25.0742 771.845 25.4814C770.917 25.8887 770.092 26.4429 769.368 27.1443C768.666 27.8456 768.112 28.6714 767.705 29.6216C767.298 30.5492 767.094 31.5559 767.094 32.6419V58.7724C767.094 59.8583 767.298 60.8764 767.705 61.8266C768.112 62.7542 768.666 63.58 769.368 64.3039C770.092 65.0053 770.917 65.5595 771.845 65.9668C772.795 66.374 773.813 66.5776 774.899 66.5776H777.953C779.039 66.5776 780.046 66.374 780.974 65.9668C781.924 65.5595 782.75 65.0053 783.451 64.3039C784.152 63.58 784.707 62.7542 785.114 61.8266C785.521 60.8764 785.725 59.8583 785.725 58.7724V48.6256H777.953V44.4515H790.102V70.0391Z" fill="#00274C"/>
<path d="M326.992 119.578C326.992 121.23 326.675 122.779 326.042 124.227C325.431 125.675 324.582 126.942 323.496 128.028C322.41 129.114 321.132 129.974 319.662 130.607C318.214 131.218 316.664 131.523 315.012 131.523H299.606V82.8596H315.012C316.664 82.8596 318.214 83.1763 319.662 83.8098C321.132 84.4206 322.41 85.269 323.496 86.355C324.582 87.4409 325.431 88.7192 326.042 90.1897C326.675 91.6376 326.992 93.1874 326.992 94.8389V119.578ZM322.614 94.8389C322.614 93.753 322.41 92.7462 322.003 91.8186C321.596 90.8684 321.03 90.0426 320.306 89.3413C319.605 88.6173 318.779 88.0517 317.829 87.6445C316.902 87.2373 315.895 87.0337 314.809 87.0337H303.983V127.349H314.809C315.895 127.349 316.902 127.146 317.829 126.738C318.779 126.331 319.605 125.777 320.306 125.076C321.03 124.374 321.596 123.56 322.003 122.632C322.41 121.682 322.614 120.664 322.614 119.578V94.8389ZM356.336 120.189H340.929L337.739 131.523H333.192L347.445 82.8596H349.752L364.073 131.523H359.56L356.336 120.189ZM342.117 116.015H355.182L348.768 93.5833L348.632 91.7847L348.497 93.5833L342.117 116.015ZM397.659 120.257C397.659 121.908 397.32 123.458 396.641 124.906C395.985 126.354 395.091 127.621 393.96 128.707C392.851 129.793 391.551 130.652 390.057 131.286C388.587 131.897 387.026 132.202 385.374 132.202H381.879C380.227 132.202 378.655 131.897 377.162 131.286C375.691 130.652 374.39 129.793 373.259 128.707C372.151 127.621 371.257 126.354 370.578 124.906C369.922 123.458 369.594 121.908 369.594 120.257V118.322L373.972 117.61V120.257C373.972 121.343 374.187 122.361 374.617 123.311C375.069 124.239 375.669 125.064 376.415 125.788C377.162 126.49 378.022 127.044 378.994 127.451C379.99 127.858 381.03 128.062 382.116 128.062H385.171C386.257 128.062 387.286 127.858 388.259 127.451C389.232 127.044 390.091 126.49 390.838 125.788C391.585 125.064 392.173 124.239 392.603 123.311C393.055 122.361 393.281 121.343 393.281 120.257V118.798C393.281 117.123 392.953 115.732 392.297 114.623C391.641 113.515 390.77 112.576 389.684 111.807C388.598 111.015 387.365 110.348 385.985 109.805C384.628 109.262 383.225 108.719 381.777 108.176C380.329 107.633 378.915 107.033 377.535 106.377C376.178 105.721 374.956 104.907 373.87 103.934C372.784 102.938 371.913 101.728 371.257 100.303C370.601 98.8773 370.273 97.1239 370.273 95.0425V94.1262C370.273 92.4747 370.578 90.925 371.189 89.4771C371.823 88.0291 372.682 86.7622 373.768 85.6762C374.854 84.5903 376.121 83.7419 377.569 83.1311C379.04 82.4976 380.601 82.1809 382.252 82.1809H385.374C387.026 82.1809 388.576 82.4976 390.023 83.1311C391.471 83.7419 392.738 84.5903 393.824 85.6762C394.91 86.7622 395.759 88.0291 396.369 89.4771C397.003 90.925 397.32 92.4747 397.32 94.1262V95.3819L392.942 96.0945V94.1262C392.942 93.0403 392.738 92.0335 392.331 91.106C391.924 90.1558 391.37 89.33 390.668 88.6287C389.967 87.9273 389.141 87.373 388.191 86.9658C387.263 86.5586 386.257 86.355 385.171 86.355H382.456C381.37 86.355 380.352 86.5586 379.402 86.9658C378.474 87.373 377.648 87.9273 376.924 88.6287C376.223 89.33 375.669 90.1558 375.261 91.106C374.854 92.0335 374.651 93.0403 374.651 94.1262V95.0425C374.651 96.6036 374.979 97.9157 375.635 98.9791C376.291 100.042 377.162 100.959 378.248 101.728C379.334 102.474 380.555 103.131 381.913 103.696C383.293 104.239 384.707 104.805 386.155 105.393C387.603 105.959 389.005 106.592 390.363 107.293C391.743 107.972 392.976 108.82 394.062 109.838C395.148 110.834 396.019 112.056 396.675 113.504C397.331 114.951 397.659 116.716 397.659 118.798V120.257ZM430.77 131.523V109.296H412.139V131.523H407.761V82.8596H412.139V105.121H430.77V82.8596H435.148V131.523H430.77ZM474.367 119.578C474.367 121.23 474.05 122.779 473.417 124.227C472.806 125.675 471.957 126.942 470.871 128.028C469.786 129.114 468.507 129.974 467.037 130.607C465.589 131.218 464.039 131.523 462.388 131.523H446.981V82.8596H462.388C464.039 82.8596 465.589 83.1763 467.037 83.8098C468.507 84.4206 469.786 85.269 470.871 86.355C471.957 87.4409 472.806 88.7192 473.417 90.1897C474.05 91.6376 474.367 93.1874 474.367 94.8389V95.314C474.367 96.4678 474.208 97.5764 473.892 98.6397C473.598 99.6804 473.168 100.653 472.602 101.558C472.037 102.463 471.369 103.289 470.6 104.035C469.831 104.759 468.971 105.37 468.021 105.868C468.971 106.366 469.831 106.988 470.6 107.734C471.369 108.458 472.037 109.284 472.602 110.212C473.168 111.117 473.598 112.101 473.892 113.164C474.208 114.205 474.367 115.302 474.367 116.456V119.578ZM469.989 115.743C469.989 114.657 469.786 113.651 469.378 112.723C468.971 111.773 468.405 110.947 467.682 110.246C466.98 109.544 466.154 108.99 465.204 108.583C464.277 108.176 463.27 107.972 462.184 107.972H451.358V127.349H462.184C463.27 127.349 464.277 127.146 465.204 126.738C466.154 126.331 466.98 125.777 467.682 125.076C468.405 124.374 468.971 123.56 469.378 122.632C469.786 121.682 469.989 120.664 469.989 119.578V115.743ZM469.989 94.8389C469.989 93.753 469.786 92.7462 469.378 91.8186C468.971 90.8684 468.405 90.0426 467.682 89.3413C466.98 88.6173 466.154 88.0517 465.204 87.6445C464.277 87.2373 463.27 87.0337 462.184 87.0337H451.358V103.798H462.184C463.27 103.798 464.277 103.594 465.204 103.187C466.154 102.78 466.98 102.226 467.682 101.524C468.405 100.8 468.971 99.9745 469.378 99.0469C469.786 98.0967 469.989 97.0787 469.989 95.9927V94.8389ZM510.091 120.257C510.091 121.908 509.774 123.458 509.141 124.906C508.53 126.354 507.681 127.621 506.595 128.707C505.509 129.793 504.242 130.652 502.795 131.286C501.347 131.897 499.797 132.202 498.145 132.202H494.684C493.032 132.202 491.471 131.897 490.001 131.286C488.553 130.652 487.286 129.793 486.2 128.707C485.114 127.621 484.254 126.354 483.621 124.906C483.01 123.458 482.705 121.908 482.705 120.257V94.1262C482.705 92.4747 483.01 90.925 483.621 89.4771C484.254 88.0291 485.114 86.7622 486.2 85.6762C487.286 84.5903 488.553 83.7419 490.001 83.1311C491.471 82.4976 493.032 82.1809 494.684 82.1809H498.145C499.797 82.1809 501.347 82.4976 502.795 83.1311C504.242 83.7419 505.509 84.5903 506.595 85.6762C507.681 86.7622 508.53 88.0291 509.141 89.4771C509.774 90.925 510.091 92.4747 510.091 94.1262V120.257ZM505.713 94.1262C505.713 93.0403 505.509 92.0335 505.102 91.106C504.695 90.1558 504.141 89.33 503.439 88.6287C502.738 87.9273 501.912 87.373 500.962 86.9658C500.034 86.5586 499.028 86.355 497.942 86.355H494.888C493.802 86.355 492.784 86.5586 491.833 86.9658C490.906 87.373 490.08 87.9273 489.356 88.6287C488.655 89.33 488.1 90.1558 487.693 91.106C487.286 92.0335 487.082 93.0403 487.082 94.1262V120.257C487.082 121.343 487.286 122.361 487.693 123.311C488.1 124.239 488.655 125.064 489.356 125.788C490.08 126.49 490.906 127.044 491.833 127.451C492.784 127.858 493.802 128.062 494.888 128.062H497.942C499.028 128.062 500.034 127.858 500.962 127.451C501.912 127.044 502.738 126.49 503.439 125.788C504.141 125.064 504.695 124.239 505.102 123.311C505.509 122.361 505.713 121.343 505.713 120.257V94.1262ZM539.469 120.189H524.062L520.872 131.523H516.324L530.577 82.8596H532.885L547.206 131.523H542.693L539.469 120.189ZM525.25 116.015H538.315L531.901 93.5833L531.765 91.7847L531.63 93.5833L525.25 116.015ZM576.991 131.523L563.79 110.755H557.784V131.523H553.406V82.8596H568.847C570.498 82.8596 572.048 83.1763 573.496 83.8098C574.944 84.4206 576.211 85.269 577.297 86.355C578.383 87.4409 579.231 88.7192 579.842 90.1897C580.475 91.6376 580.792 93.1874 580.792 94.8389V98.7754C580.792 100.427 580.475 101.988 579.842 103.459C579.231 104.907 578.383 106.173 577.297 107.259C576.211 108.345 574.944 109.205 573.496 109.838C572.048 110.449 570.498 110.755 568.847 110.755L582.048 131.523H576.991ZM576.414 94.8389C576.414 93.753 576.211 92.7462 575.803 91.8186C575.396 90.8684 574.842 90.0426 574.141 89.3413C573.439 88.6173 572.613 88.0517 571.663 87.6445C570.736 87.2373 569.729 87.0337 568.643 87.0337H557.784V106.581H568.643C569.729 106.581 570.736 106.377 571.663 105.97C572.613 105.563 573.439 105.008 574.141 104.307C574.842 103.583 575.396 102.757 575.803 101.83C576.211 100.879 576.414 99.8614 576.414 98.7754V94.8389ZM618.484 119.578C618.484 121.23 618.167 122.779 617.534 124.227C616.923 125.675 616.075 126.942 614.989 128.028C613.903 129.114 612.625 129.974 611.154 130.607C609.706 131.218 608.156 131.523 606.505 131.523H591.098V82.8596H606.505C608.156 82.8596 609.706 83.1763 611.154 83.8098C612.625 84.4206 613.903 85.269 614.989 86.355C616.075 87.4409 616.923 88.7192 617.534 90.1897C618.167 91.6376 618.484 93.1874 618.484 94.8389V119.578ZM614.106 94.8389C614.106 93.753 613.903 92.7462 613.496 91.8186C613.088 90.8684 612.523 90.0426 611.799 89.3413C611.097 88.6173 610.272 88.0517 609.321 87.6445C608.394 87.2373 607.387 87.0337 606.301 87.0337H595.476V127.349H606.301C607.387 127.349 608.394 127.146 609.321 126.738C610.272 126.331 611.097 125.777 611.799 125.076C612.523 124.374 613.088 123.56 613.496 122.632C613.903 121.682 614.106 120.664 614.106 119.578V94.8389Z" fill="#00274C"/>
<rect width="38.6438" height="7.58524" rx="3.79262" transform="matrix(0.861367 -0.507982 0.508033 0.861338 713.412 128.102)" fill="#B3E5FF"/>
<rect width="38.6438" height="7.58524" rx="3.79262" transform="matrix(-0.861367 -0.507982 -0.508033 0.861338 726.834 128.102)" fill="#B3E5FF"/>
<rect width="38.6419" height="7.58561" rx="3.79281" transform="matrix(-4.37143e-08 -1 -1 4.37085e-08 724.385 157.273)" fill="#B3E5FF"/>
<path d="M697.145 111.699C694.708 110.237 694.708 106.705 697.145 105.243L718.063 92.6932C719.255 91.978 720.744 91.978 721.937 92.6932L742.854 105.243C745.292 106.705 745.292 110.237 742.854 111.699L721.937 124.249C720.744 124.965 719.255 124.965 718.063 124.249L697.145 111.699Z" fill="#0D57AA"/>
<path d="M721.882 131.376C721.882 130.016 722.616 128.762 723.801 128.095L746.39 115.39C748.899 113.978 752 115.792 752 118.671V140.148C752 141.508 751.266 142.763 750.081 143.429L727.492 156.134C724.983 157.546 721.882 155.733 721.882 152.853V131.376Z" fill="#0477CC"/>
<path d="M688 117.151C688 114.195 691.252 112.392 693.76 113.959L716.348 128.076C717.449 128.764 718.118 129.97 718.118 131.268V152.861C718.118 155.74 715.017 157.553 712.508 156.142L689.919 143.437C688.734 142.77 688 141.515 688 140.155V117.151Z" fill="#009CF6"/>
</svg>
